<svg width="26" height="28" viewBox="0 0 26 28" fill="none" xmlns="http://www.w3.org/2000/svg">
<path d="M5.01127 27.5571C4.82836 27.5148 4.64268 27.4809 4.46255 27.4282C2.66466 26.9079 1.58107 25.7336 1.2402 23.8886C1.17923 23.5588 1.30463 23.3461 1.56029 23.3121C1.79793 23.2803 1.95866 23.4438 2.00786 23.768C2.35427 26.0724 4.78125 27.4137 6.90892 26.4707C7.56642 26.179 7.99597 25.6781 8.2156 24.9777C7.92045 25.0504 7.65164 25.1412 7.37589 25.1807C5.78308 25.4072 4.35308 24.0999 4.40851 22.4877C4.44038 21.5655 4.66832 20.6995 5.09302 19.8189C4.82282 19.8667 4.54014 19.8799 4.28449 19.9685C3.34571 20.2949 2.68683 20.9371 2.27321 21.8357C2.24411 21.8981 2.2254 21.9653 2.19492 22.0276C2.08822 22.2472 1.88592 22.3345 1.68223 22.2528C1.48546 22.1745 1.38292 21.9535 1.48269 21.7359C1.65382 21.3611 1.85128 20.9974 2.04943 20.6073C2.02795 20.5907 1.97737 20.5484 1.92333 20.511C0.970692 19.8521 0.62982 18.6515 1.1148 17.5984C1.23605 17.3358 1.21318 17.1404 1.03028 16.9152C0.293106 16.0076 0.330518 14.7772 1.1051 13.9007C1.13351 13.8689 1.16122 13.8356 1.19655 13.7947C0.684554 12.8026 0.814805 11.9179 1.63581 11.171C1.54574 10.8315 1.4335 10.5059 1.3753 10.1706C1.26445 9.53385 1.38085 8.91585 1.73627 8.38375C1.96767 8.03665 2.0515 7.67845 2.10208 7.28216C2.48591 4.26905 4.37386 2.16008 7.31769 1.40212C8.66247 1.05571 10.0267 0.969799 11.4047 1.0086C13.0155 1.05363 14.6104 1.21991 16.1644 1.67441C18.3039 2.30003 20.0921 3.43765 21.4043 5.26811C21.4396 5.3173 21.4777 5.36441 21.5075 5.41706C21.6191 5.61244 21.5775 5.8286 21.4091 5.94708C21.2359 6.06971 21.0288 6.04269 20.8798 5.86117C20.6546 5.58819 20.4503 5.29651 20.2168 5.03116C18.8595 3.49169 17.1129 2.63467 15.1411 2.21412C12.9615 1.74923 10.7569 1.62036 8.544 1.93907C7.0267 2.15731 5.63412 2.68732 4.52282 3.79654C3.58265 4.73463 3.08867 5.89026 2.88498 7.22465C5.26553 5.74893 7.87819 5.29305 10.5906 5.28265C13.3058 5.27296 15.9226 5.71637 18.335 7.16368C18.1785 6.42929 17.9034 5.7995 17.4683 5.23831C17.3977 5.14686 17.302 5.02077 17.318 4.92793C17.3408 4.79352 17.4288 4.61546 17.539 4.56696C17.6491 4.51847 17.8653 4.55865 17.9533 4.64387C18.1431 4.82677 18.2983 5.05264 18.4369 5.28058C18.8879 6.02467 19.1138 6.8436 19.2163 7.7027C19.2281 7.79901 19.2634 7.9057 19.3216 7.98122C20.0491 8.93386 20.1773 9.9537 19.6847 11.0484C19.6743 11.0719 19.6639 11.0955 19.6549 11.1197C19.6521 11.1267 19.6556 11.1357 19.6577 11.1606C19.7055 11.2043 19.7637 11.2548 19.8184 11.3089C19.8676 11.3574 19.9126 11.4093 19.9771 11.4793C20.7502 10.632 21.7064 10.2731 22.8738 10.4054C22.8107 10.192 22.7685 10.0098 22.7033 9.83592C22.4089 9.05303 22.1144 8.27013 21.8068 7.49278C21.6773 7.16576 21.707 6.96207 21.9454 6.85191C22.1761 6.74591 22.3666 6.85191 22.5183 7.17338C23.0172 8.23064 23.3865 9.33362 23.7052 10.456C23.7426 10.5869 23.8493 10.7317 23.965 10.8024C25.4241 11.692 25.9298 13.5419 25.1033 15.0093C24.2629 16.5023 22.4338 17.0448 20.911 16.2529C20.8507 16.2217 20.7904 16.1898 20.7558 16.1718C20.5563 16.4774 20.3463 16.76 20.1828 17.067C20.1212 17.1834 20.1115 17.3843 20.1697 17.5C20.8348 18.8184 20.1184 20.4244 18.7355 20.82C18.4688 20.8962 18.4113 21.0881 18.4397 21.3452C18.5491 22.3366 18.1993 23.1244 17.3623 23.6786C16.9937 23.9225 16.5801 24.0472 16.136 24.032C15.8485 24.0223 15.694 24.1511 15.5977 24.4137C15.2249 25.4322 14.343 26.0245 13.2552 25.9864C13.0079 25.9774 12.8513 26.0613 12.7356 26.2816C12.3788 26.9571 11.819 27.3672 11.0673 27.5141C11.0354 27.5204 11.007 27.5425 10.9765 27.5578C10.7687 27.5578 10.5615 27.5578 10.3537 27.5578C9.78901 27.4275 9.27424 27.2044 8.89388 26.7472C8.74907 26.5726 8.62852 26.3772 8.48372 26.1728C8.02161 26.8005 7.40083 27.1816 6.66851 27.3887C6.43018 27.4559 6.1863 27.5023 5.94451 27.5585C5.63412 27.5571 5.32304 27.5571 5.01127 27.5571ZM9.19734 24.0244C9.15507 24.1657 9.1142 24.2655 9.09688 24.3694C9.0657 24.5564 9.07332 24.7525 9.02066 24.9326C8.93198 25.2382 8.85369 25.5257 9.16754 25.755C9.19941 25.7786 9.21258 25.8278 9.23267 25.8659C9.53405 26.4444 10.0093 26.7735 10.6634 26.7707C11.3049 26.768 11.7747 26.4472 12.074 25.877C12.3192 25.4107 12.7051 25.1932 13.2358 25.2091C14.0672 25.2347 14.6021 24.8648 14.8979 24.0798C15.0988 23.5463 15.4945 23.2664 16.0612 23.2567C17.1025 23.2387 17.7558 22.5126 17.6699 21.4678C17.6055 20.6849 17.8424 20.3156 18.5768 20.0517C19.4706 19.7309 19.8877 18.7907 19.4921 17.9268C19.2364 17.369 19.3015 16.8965 19.6874 16.4164C20.4302 15.4901 19.9092 14.1418 18.7438 13.9222C18.3551 13.8488 18.3503 13.8536 18.3184 14.2652C18.748 14.5125 18.9967 14.8825 18.9579 15.3882C18.8865 16.3153 18.4916 17.076 17.7288 17.6289C17.4808 17.809 17.2577 17.7958 17.1115 17.6018C16.9709 17.4155 17.0235 17.1799 17.2653 17.0046C17.7856 16.6284 18.0704 16.1185 18.166 15.4901C18.2304 15.0654 18.0136 14.8541 17.5979 14.9649C16.4097 15.2822 15.315 15.0806 14.2751 14.4335C13.9363 14.2229 13.5518 14.0636 13.1672 13.9527C12.7169 13.8225 12.2562 13.8613 11.8079 14.0989C12.2098 14.5679 12.2181 15.1083 12.1633 15.6869C12.2527 15.6481 12.3061 15.6238 12.3601 15.6016C12.9386 15.3585 13.5601 15.5462 13.8573 16.0963C13.9979 16.3561 14.0825 16.654 14.1434 16.9457C14.1878 17.1584 14.1524 17.3871 14.1524 17.6309C14.3305 17.6399 14.4933 17.66 14.6554 17.6538C15.0005 17.6406 15.3448 17.6074 15.6898 17.5949C15.8991 17.5873 16.0369 17.6981 16.0709 17.9067C16.1062 18.1249 16.0092 18.2739 15.7972 18.3432C15.7563 18.3563 15.7134 18.3702 15.6711 18.3702C15.1196 18.3771 14.5688 18.3896 14.0173 18.382C13.7804 18.3785 13.6418 18.5087 13.6723 18.7249C13.7201 19.0651 13.7679 19.4073 13.7735 19.7496C13.7825 20.2554 13.567 20.6731 13.1645 20.978C13.0398 21.0729 13.0003 21.1664 12.9947 21.3182C12.9712 21.9951 12.6448 22.4821 12.0192 22.7461C11.8661 22.8112 11.8204 22.8902 11.8044 23.0461C11.7345 23.7451 11.2052 24.2897 10.5109 24.4061C10.037 24.4851 9.6255 24.3431 9.19734 24.0244ZM10.6537 6.0607C8.97632 6.05932 7.32531 6.24915 5.72211 6.76323C4.7376 7.07847 3.80367 7.50317 2.97227 8.12533C2.0612 8.80707 1.84227 9.99943 2.44642 10.914C2.62794 11.1897 2.86073 11.2389 3.09698 11.0276C4.25331 9.9925 5.64174 9.4521 7.13201 9.1424C9.41973 8.66712 11.7178 8.66296 14.009 9.1036C15.554 9.40083 17 9.944 18.2013 11.013C18.4577 11.241 18.6794 11.1987 18.8699 10.9091C19.4526 10.0209 19.269 8.82439 18.3926 8.1766C17.9034 7.81494 17.3665 7.49971 16.8136 7.24405C14.8619 6.3413 12.7813 6.06694 10.6537 6.0607ZM10.6724 9.5678C9.48624 9.58027 8.30705 9.66202 7.14726 9.92737C5.99231 10.1913 4.89487 10.5932 3.95124 11.3331C3.83692 11.4225 3.72607 11.5902 3.71776 11.728C3.68034 12.3121 3.61591 12.9058 3.68519 13.4816C3.78635 14.3275 3.62838 14.1592 4.46947 14.2977C4.57132 14.3144 4.67524 14.3213 4.77848 14.3261C5.5108 14.3608 6.13434 14.0753 6.74195 13.6991C7.80129 13.0437 8.90565 12.8622 10.0537 13.4927C10.1022 13.519 10.1666 13.5225 10.2241 13.5266C10.5137 13.5467 10.8151 13.6195 11.0915 13.5668C11.3791 13.5121 11.643 13.3347 11.9181 13.2121C11.9416 13.2017 11.968 13.1982 11.9929 13.1927C12.9656 12.9654 13.849 13.2135 14.6527 13.749C15.4737 14.2957 16.3439 14.4446 17.2972 14.2333C17.4718 14.1945 17.5369 14.1169 17.5681 13.952C17.7073 13.2142 17.7254 12.4742 17.6041 11.735C17.5806 11.5915 17.4843 11.4107 17.3658 11.3407C16.7734 10.9909 16.1887 10.6091 15.554 10.3542C13.9931 9.72576 12.3393 9.58789 10.6724 9.5678ZM12.861 20.1487C12.8811 20.1487 12.9019 20.1487 12.922 20.1487C12.9483 19.9755 12.9843 19.8036 12.9996 19.629C13.089 18.6064 12.4031 18.1083 11.564 18.1713C11.255 18.1942 10.9419 18.1803 10.6315 18.1706C10.4188 18.1637 10.2955 18.0293 10.2754 17.827C10.2546 17.6226 10.3613 17.4778 10.5615 17.421C10.6426 17.3981 10.734 17.3898 10.8172 17.4002C10.9862 17.421 11.0597 17.3455 11.1123 17.191C11.3465 16.5023 11.4158 15.7901 11.3936 15.0716C11.3881 14.8866 11.271 14.6684 11.1379 14.5298C10.6779 14.0518 9.9158 14.2562 9.69132 14.9171C9.37886 15.8365 8.91466 16.6728 8.29389 17.4106C7.77219 18.0307 7.2103 18.6189 6.63664 19.1919C5.72557 20.1023 5.23574 21.1879 5.18932 22.4717C5.14498 23.6994 6.19392 24.6126 7.39044 24.3929C7.82276 24.314 8.17264 24.0916 8.46571 23.7659C8.69365 23.5124 8.77887 23.2408 8.71374 22.8937C8.67148 22.6664 8.86893 22.487 9.08163 22.4793C9.28394 22.4717 9.44398 22.6193 9.47793 22.8445C9.48694 22.904 9.48971 22.965 9.50356 23.0232C9.59155 23.4098 9.94143 23.6793 10.3121 23.6502C10.6897 23.6204 11.0015 23.3128 11.0375 22.9241C11.05 22.787 11.0479 22.6477 11.0451 22.5098C11.0299 21.7976 10.5726 21.3306 9.86037 21.305C9.61858 21.296 9.37608 21.3078 9.13429 21.2995C8.87309 21.2904 8.70335 21.1311 8.70543 20.9122C8.70681 20.6932 8.87656 20.5332 9.13914 20.5283C9.44121 20.5221 9.74536 20.5138 10.0454 20.5422C10.8525 20.6184 11.3971 21.0563 11.704 21.7997C11.7296 21.8613 11.7511 21.9251 11.7781 21.9978C12.0636 21.8565 12.1952 21.6299 12.2181 21.3341C12.2264 21.2226 12.2215 21.1096 12.2208 20.9974C12.2167 20.2346 11.7407 19.7503 10.9786 19.7378C10.6329 19.7323 10.2872 19.7399 9.94143 19.7357C9.65945 19.7323 9.48486 19.5805 9.48624 19.3505C9.48763 19.1233 9.6643 18.9653 9.9449 18.9605C10.3253 18.9542 10.7056 18.9473 11.0853 18.9639C11.8446 18.9972 12.4128 19.3526 12.7827 20.0191C12.807 20.0641 12.8347 20.1064 12.861 20.1487ZM20.1544 13.6991C20.3678 14.1287 20.6172 14.4779 20.7121 14.8652C20.805 15.2441 21.0135 15.4381 21.3246 15.5906C21.8144 15.831 22.325 15.8961 22.8606 15.7866C23.8701 15.5802 24.6349 14.7051 24.716 13.6596C24.7957 12.6336 24.1583 11.6539 23.1758 11.2943C22.2003 10.9368 21.0752 11.2798 20.4807 12.1223C20.4302 12.1936 20.3775 12.2975 20.3907 12.3751C20.4773 12.8767 20.3643 13.334 20.1544 13.6991ZM9.26731 13.995C9.2583 13.9908 9.23613 13.977 9.21189 13.97C8.4567 13.7532 7.78466 13.9783 7.13894 14.3552C6.87844 14.507 6.62348 14.6732 6.34773 14.7917C5.50317 15.1555 4.6309 15.2095 3.74062 14.9698C3.30137 14.8513 3.08728 15.037 3.14756 15.488C3.23139 16.1171 3.51406 16.6409 4.04616 16.997C4.94337 17.5984 5.96252 17.6767 7.00246 17.6379C7.06135 17.6358 7.13271 17.5894 7.17497 17.5429C7.87057 16.7677 8.46848 15.9287 8.85369 14.9511C8.9784 14.6351 9.1232 14.3261 9.26731 13.995ZM6.26459 18.4602C5.78793 18.3764 5.32165 18.3272 4.87409 18.2094C3.66926 17.8921 2.78105 17.2139 2.44849 15.9501C2.27944 15.3058 2.28914 14.7176 2.92516 14.2964C2.98267 14.2582 2.96604 14.0823 2.9501 13.9756C2.94456 13.9395 2.83163 13.891 2.77205 13.8959C2.16582 13.9451 1.70648 14.2368 1.43904 14.7848C1.16953 15.337 1.20972 15.8982 1.59493 16.3686C2.01963 16.8868 2.07437 17.3884 1.79585 17.9933C1.4723 18.6965 1.78407 19.5376 2.44642 19.9235C2.57667 19.9997 2.67505 20.017 2.81154 19.9083C3.59166 19.2868 4.46324 18.9535 5.47962 19.0997C5.55306 19.1101 5.65837 19.0886 5.70894 19.0401C5.90224 18.8579 6.07822 18.6584 6.26459 18.4602ZM13.1991 17.8519C13.4 17.5651 13.4506 17.0975 13.2968 16.6984C13.1277 16.2598 12.9178 16.1815 12.5049 16.4012C12.3989 16.458 12.2873 16.5065 12.1876 16.5737C12.128 16.6132 12.0622 16.6728 12.0428 16.7365C11.9797 16.9464 11.9368 17.1633 11.9001 17.3178C12.3442 17.4993 12.7661 17.6732 13.1991 17.8519ZM19.4637 13.3021C19.7637 12.8421 19.6743 12.1818 19.2489 11.8444C19.199 11.8049 19.1082 11.7835 19.0473 11.7987C18.8498 11.8458 18.6565 11.9144 18.4625 11.974C18.4625 12.3377 18.4625 12.7119 18.4625 13.0721C18.811 13.1518 19.1353 13.2266 19.4637 13.3021ZM2.85449 11.9705C2.66258 11.9137 2.47621 11.8507 2.28568 11.8056C2.22263 11.7904 2.13118 11.7952 2.08199 11.8313C1.64759 12.1458 1.54505 12.867 1.85405 13.3008C2.18314 13.2239 2.506 13.149 2.85449 13.068C2.85449 12.707 2.85449 12.3384 2.85449 11.9705Z" fill="#D21131" stroke="#D21131" stroke-width="0.5"/>
<path d="M13.8519 10.835C14.4256 10.8371 14.8939 11.2673 14.9452 11.8389C14.9674 12.087 14.8489 12.2699 14.6403 12.3087C14.4089 12.3523 14.2323 12.2283 14.1838 11.9685C14.1464 11.7703 14.0729 11.6138 13.8443 11.6186C13.6198 11.6235 13.545 11.7724 13.5145 11.9768C13.4792 12.2172 13.2976 12.3426 13.0746 12.3114C12.8722 12.283 12.7413 12.1133 12.7455 11.8833C12.7558 11.3158 13.2651 10.8329 13.8519 10.835Z" fill="#D21131" stroke="#D21131" stroke-width="0.5"/>
<path d="M7.45695 10.835C8.03131 10.8308 8.5052 11.2569 8.55924 11.8264C8.58488 12.0924 8.46432 12.2767 8.24331 12.3107C8.0126 12.3453 7.84978 12.2227 7.79782 11.9546C7.7611 11.7654 7.68628 11.6192 7.47289 11.6185C7.25118 11.6179 7.16388 11.7564 7.1334 11.965C7.09807 12.2102 6.92624 12.3377 6.70246 12.3128C6.48838 12.2885 6.35397 12.1139 6.36298 11.8694C6.38376 11.3075 6.87913 10.8391 7.45695 10.835Z" fill="#D21131" stroke="#D21131" stroke-width="0.5"/>
</svg>
