<svg width="249" height="111" viewBox="0 0 249 111" fill="none" xmlns="http://www.w3.org/2000/svg">
<g opacity="0.2">
<path d="M239.71 93.987C233.069 93.987 226.149 98.8015 233.722 102.57C239.61 105.5 239.71 107.324 239.71 107.324C239.71 107.324 239.809 105.5 245.697 102.57C253.267 98.7991 246.35 93.9846 239.71 93.987Z" fill="black"/>
<path d="M241.833 94.143C240.855 93.5068 240.684 92.5049 240.684 92.5049H239.706H238.728C238.728 92.5049 238.558 93.5068 237.58 94.143C236.602 94.7793 236.602 94.7793 236.602 94.7793H239.703H242.804C242.811 94.7793 242.811 94.7793 241.833 94.143Z" fill="black"/>
<path d="M240.942 92.9583H238.478C238.394 92.9583 238.323 92.9071 238.323 92.8413V92.6219C238.323 92.5585 238.391 92.5049 238.478 92.5049H240.942C241.026 92.5049 241.096 92.5561 241.096 92.6219V92.8413C241.096 92.9047 241.026 92.9583 240.942 92.9583Z" fill="black"/>
<path d="M240.601 92.8949H238.786C238.738 92.8949 238.609 92.8949 238.609 92.8584L238.699 92.4098C238.699 92.3732 238.738 92.3464 238.783 92.3464H240.598C240.646 92.3464 240.681 92.3757 240.681 92.4098L240.784 92.8535C240.791 92.89 240.649 92.8949 240.601 92.8949Z" fill="black"/>
<path d="M239.938 0H239.481V94.182H239.938V0Z" fill="black"/>
<path d="M240.791 87.5318C240.791 87.9877 240.302 88.3582 239.7 88.3582C239.098 88.3582 238.609 87.9877 238.609 87.5318C238.609 87.076 239.098 86.7054 239.7 86.7054C240.302 86.7054 240.791 87.076 240.791 87.5318Z" fill="black"/>
<path d="M240.79 90.3328C240.79 90.7862 240.305 91.1519 239.709 91.1519C239.114 91.1519 238.628 90.7838 238.628 90.3328C238.628 89.8794 239.114 89.5137 239.709 89.5137C240.305 89.5137 240.79 89.8818 240.79 90.3328Z" fill="black"/>
<path d="M12.3725 46.7753C12.3725 46.7753 4.75429 46.8777 6.11836 52.4869C7.48243 58.0962 12.0765 57.9816 12.3725 61.1531C12.6685 57.9816 17.2626 58.0962 18.6267 52.4869C19.9939 46.8753 12.3725 46.7753 12.3725 46.7753Z" fill="black"/>
<path d="M13.6368 46.0879H11.1082V48.004H13.6368V46.0879Z" fill="black"/>
<path d="M12.6009 0H12.144V47.6846H12.6009V0Z" fill="black"/>
<path d="M13.3087 43.9939C13.3087 44.3863 12.8904 44.7033 12.3725 44.7033C11.8545 44.7033 11.4363 44.3863 11.4363 43.9939C11.4363 43.6014 11.8545 43.2845 12.3725 43.2845C12.8904 43.2845 13.3087 43.6038 13.3087 43.9939Z" fill="black"/>
<path d="M12.3725 42.3289C12.8895 42.3289 13.3087 42.0113 13.3087 41.6195C13.3087 41.2277 12.8895 40.9101 12.3725 40.9101C11.8554 40.9101 11.4363 41.2277 11.4363 41.6195C11.4363 42.0113 11.8554 42.3289 12.3725 42.3289Z" fill="black"/>
<path d="M170.994 73.2467C170.634 66.5551 155.436 77.8419 153.982 78.9389C153.908 78.9949 153.869 79.0681 153.869 79.1461V80.4771C153.869 80.5551 153.908 80.6282 153.982 80.6843C155.43 81.7788 170.576 93.0655 170.994 86.3764C171.435 79.3557 171.371 80.2235 170.994 73.2467Z" fill="black"/>
<path d="M133.302 73.2468C133.666 66.5381 148.934 77.898 150.324 78.9462C150.392 78.9974 150.424 79.0632 150.424 79.1339V80.4893C150.424 80.56 150.389 80.6258 150.324 80.6745C148.941 81.7228 133.724 93.0826 133.302 86.374C132.865 79.3557 132.926 80.2236 133.302 73.2468Z" fill="black"/>
<path d="M152.789 80.5941H151.511C151.418 80.5941 151.344 80.538 151.344 80.4673V79.1534C151.344 79.0827 151.418 79.0266 151.511 79.0266H152.789C152.882 79.0266 152.956 79.0827 152.956 79.1534V80.4673C152.956 80.538 152.882 80.5941 152.789 80.5941Z" fill="black"/>
<path d="M151.235 81.1986C150.89 81.0353 140.328 92.1294 138.685 93.9066C137.044 95.6837 135.159 97.1049 135.754 97.373C136.346 97.6387 139.624 96.0396 139.624 96.0396C139.624 96.0396 138.405 98.6163 139.273 98.6163C140.139 98.6163 151.579 81.362 151.235 81.1986Z" fill="black"/>
<path d="M152.982 81.1986C153.278 80.9695 169.865 95.0133 169.354 95.3229C168.842 95.6325 165.709 94.5648 165.709 94.5648C165.709 94.5648 166.783 97.1414 166.243 97.2926C165.705 97.4486 152.686 81.4278 152.982 81.1986Z" fill="black"/>
<path d="M152.412 0H151.955V77.2909H152.412V0Z" fill="black"/>
<path d="M152.184 75.4821C153.022 75.4821 153.702 74.967 153.702 74.3315C153.702 73.6961 153.022 73.1809 152.184 73.1809C151.345 73.1809 150.665 73.6961 150.665 74.3315C150.665 74.967 151.345 75.4821 152.184 75.4821Z" fill="black"/>
<path d="M153.702 70.8772C153.702 71.5135 153.023 72.0278 152.184 72.0278C151.344 72.0278 150.665 71.5135 150.665 70.8772C150.665 70.241 151.344 69.7266 152.184 69.7266C153.023 69.7266 153.702 70.241 153.702 70.8772Z" fill="black"/>
<path d="M153.01 78.3587L153.451 77.291H150.845L151.199 78.3684C151.511 78.3392 151.823 78.3197 152.145 78.3197C152.441 78.3197 152.727 78.3343 153.01 78.3587Z" fill="black"/>
<path d="M126.581 23.178H124.384C124.301 23.178 124.23 23.1268 124.23 23.061V22.8855C124.23 22.8221 124.297 22.7685 124.384 22.7685H126.581C126.665 22.7685 126.736 22.8197 126.736 22.8855V23.061C126.736 23.1244 126.668 23.178 126.581 23.178Z" fill="black"/>
<path d="M126.298 23.1195H124.658C124.616 23.1195 124.5 23.1195 124.5 23.0854L124.584 22.6807C124.584 22.649 124.619 22.6222 124.661 22.6222H126.302C126.343 22.6222 126.379 22.649 126.379 22.6807L126.472 23.0829C126.469 23.1171 126.34 23.1195 126.298 23.1195Z" fill="black"/>
<path d="M125.713 0H125.256V22.9001H125.713V0Z" fill="black"/>
<path d="M126.717 20.1479C126.717 20.6647 126.163 21.0816 125.484 21.0816C124.802 21.0816 124.252 20.6623 124.252 20.1479C124.252 19.6335 124.806 19.2142 125.484 19.2142C126.163 19.2118 126.717 19.6311 126.717 20.1479Z" fill="black"/>
<path d="M125.481 17.7345C126.153 17.7345 126.697 17.322 126.697 16.8131C126.697 16.3042 126.153 15.8916 125.481 15.8916C124.81 15.8916 124.265 16.3042 124.265 16.8131C124.265 17.322 124.81 17.7345 125.481 17.7345Z" fill="black"/>
<path d="M125.481 14.3998C126.153 14.3998 126.697 13.9872 126.697 13.4783C126.697 12.9694 126.153 12.5568 125.481 12.5568C124.81 12.5568 124.265 12.9694 124.265 13.4783C124.265 13.9872 124.81 14.3998 125.481 14.3998Z" fill="black"/>
<path d="M143.732 51.5557C143.732 51.5557 139.508 48.7596 139.694 48.1941C139.881 47.6285 144.034 48.1941 144.034 48.1941C144.034 48.1941 135.026 40.6956 135.284 40.0788C135.541 39.4597 139.833 40.0788 139.833 40.0788C139.833 40.0788 130.825 32.2269 131.011 31.8564C131.198 31.4858 135.071 31.8564 135.071 31.8564L125.481 22.6271L115.891 31.8564C115.891 31.8564 119.764 31.5199 119.951 31.8564C120.137 32.1928 111.129 40.0788 111.129 40.0788C111.129 40.0788 115.563 39.5304 115.678 40.0788C115.794 40.6273 106.928 48.1941 106.928 48.1941C106.928 48.1941 111.081 47.6992 111.268 48.1941C111.454 48.6889 107.23 51.5557 107.23 51.5557C112.455 50.0248 118.731 49.1302 125.478 49.1302C132.231 49.1302 138.507 50.0248 143.732 51.5557Z" fill="black"/>
<path d="M206.38 60.8167C206.087 60.9288 205.971 61.1994 206.123 61.4213L210.115 67.3547C210.495 67.9178 210.199 68.6053 209.456 68.8929C205.862 70.2824 203.256 74.0707 205.09 76.7936L205.486 77.3811C206.209 78.4562 207.944 78.8828 209.359 78.3343L218.901 74.6484L223.917 72.7104C225.619 72.0547 226.294 70.4775 225.426 69.1879L217.325 57.1503C217.157 56.9041 216.759 56.8066 216.434 56.9309L206.38 60.8167Z" fill="black"/>
<path d="M214.577 52.5771L202.851 57.4575C202.474 57.6135 202.345 57.9792 202.574 58.2571L204.376 60.4657C204.549 60.6777 204.91 60.7533 205.202 60.6412L216.736 56.185C217.099 56.0436 217.267 55.7194 217.122 55.4293L215.87 52.9379C215.674 52.5454 215.066 52.3748 214.577 52.5771Z" fill="black"/>
<path d="M208.095 67.323C208.053 67.8057 207.734 68.2201 207.271 68.5005C207.281 68.5005 207.29 68.5029 207.303 68.5053C208.352 68.559 209.263 67.9544 209.333 67.1597C209.404 66.365 208.606 65.6751 207.558 65.6215C207.287 65.6069 207.027 65.6386 206.785 65.7068C207.606 65.9774 208.159 66.6088 208.095 67.323Z" fill="black"/>
<path d="M204.073 67.1256C204.141 66.3504 205.025 65.7653 206.045 65.8165C207.068 65.8677 207.84 66.5381 207.773 67.3109C207.705 68.0861 206.821 68.6711 205.801 68.6199C204.778 68.5712 204.006 67.9008 204.073 67.1256Z" fill="black"/>
<path d="M207.252 65.4972L207.355 65.4874L206.846 62.6036L206.705 62.4012L207.252 65.4972Z" fill="black"/>
<path d="M205.968 65.6751L206.058 65.68L206.386 61.9186L206.306 61.7796L205.968 65.6751Z" fill="black"/>
<path d="M215.372 0H214.915V51.0609H215.372V0Z" fill="black"/>
<path d="M216.662 48.099C216.662 48.7352 215.983 49.2496 215.143 49.2496C214.304 49.2496 213.625 48.7352 213.625 48.099C213.625 47.4627 214.304 46.9484 215.143 46.9484C215.983 46.9484 216.662 47.4652 216.662 48.099Z" fill="black"/>
<path d="M216.662 44.6472C216.662 45.2834 215.983 45.7978 215.143 45.7978C214.304 45.7978 213.625 45.2834 213.625 44.6472C213.625 44.0109 214.304 43.4966 215.143 43.4966C215.983 43.4966 216.662 44.0109 216.662 44.6472Z" fill="black"/>
<path d="M215.97 52.1286L216.411 51.0609H213.805L214.159 52.1383C214.471 52.1091 214.783 52.0896 215.105 52.0896C215.401 52.0896 215.687 52.1042 215.97 52.1286Z" fill="black"/>
<path d="M29.9832 83.9923C29.6261 83.9996 29.343 84.2263 29.3526 84.4969L29.6197 91.7833C29.6454 92.4756 28.9248 93.0509 28.0143 93.0704C23.6004 93.163 18.6749 95.9786 18.7972 99.3256L18.8229 100.047C18.8711 101.366 20.3221 102.405 22.0626 102.37L33.7827 102.124L39.9435 101.995C42.0315 101.951 43.6786 100.632 43.6207 99.0502L43.0802 84.2677C43.0706 83.9655 42.736 83.7266 42.3371 83.7339L29.9832 83.9923Z" fill="black"/>
<path d="M43.1959 78.7682L28.5771 79.4142C28.1074 79.4362 27.7536 79.7506 27.805 80.1065L28.2168 82.9294C28.2554 83.2025 28.5643 83.4048 28.9246 83.3975L43.0897 83.1001C43.5369 83.0903 43.9005 82.8271 43.9391 82.4907L44.2511 79.5824C44.2994 79.1266 43.8039 78.7414 43.1959 78.7682Z" fill="black"/>
<path d="M36.0281 0H35.5713V77.4933H36.0281V0Z" fill="black"/>
<path d="M37.3214 74.5339C37.3214 75.1701 36.6426 75.6845 35.8029 75.6845C34.9632 75.6845 34.2844 75.1701 34.2844 74.5339C34.2844 73.8976 34.9632 73.3832 35.8029 73.3832C36.6394 73.3808 37.3214 73.8976 37.3214 74.5339Z" fill="black"/>
<path d="M37.3214 71.0796C37.3214 71.7158 36.6426 72.2302 35.8029 72.2302C34.9632 72.2302 34.2844 71.7158 34.2844 71.0796C34.2844 70.4433 34.9632 69.929 35.8029 69.929C36.6394 69.929 37.3214 70.4433 37.3214 71.0796Z" fill="black"/>
<path d="M36.6297 78.561L37.0705 77.4933H34.4646L34.8185 78.5708C35.1306 78.5415 35.4426 78.522 35.7643 78.522C36.0571 78.522 36.3466 78.5366 36.6297 78.561Z" fill="black"/>
<path d="M95.3365 0H94.8796V95.2303H95.3365V0Z" fill="black"/>
<path d="M96.6298 92.2709C96.6298 92.9071 95.9509 93.4215 95.1113 93.4215C94.2716 93.4215 93.5928 92.9071 93.5928 92.2709C93.5928 91.6346 94.2716 91.1202 95.1113 91.1202C95.9509 91.1202 96.6298 91.6346 96.6298 92.2709Z" fill="black"/>
<path d="M96.6298 88.8166C96.6298 89.4528 95.9509 89.9672 95.1113 89.9672C94.2716 89.9672 93.5928 89.4528 93.5928 88.8166C93.5928 88.1803 94.2716 87.666 95.1113 87.666C95.9509 87.666 96.6298 88.1803 96.6298 88.8166Z" fill="black"/>
<path d="M95.9703 96.298L96.4111 95.2303H93.8052L94.1591 96.3078C94.4711 96.2785 94.7832 96.259 95.1049 96.259C95.4009 96.259 95.6872 96.2736 95.9703 96.298Z" fill="black"/>
<path d="M108.318 93.2191C108.063 88.5289 97.4147 96.4394 96.3948 97.2097C96.3434 97.2487 96.3176 97.2999 96.3176 97.356V98.2872C96.3176 98.3433 96.3434 98.3944 96.3948 98.4335C97.4115 99.2013 108.025 107.112 108.318 102.424C108.626 97.5022 108.581 98.1092 108.318 93.2191ZM107.423 101.598C107.176 105.574 98.1739 98.8649 97.3117 98.2141C97.2667 98.1799 97.2442 98.1385 97.2442 98.0922V97.3023C97.2442 97.256 97.2667 97.2121 97.3117 97.178C98.1771 96.5271 107.208 89.8185 107.423 93.7944C107.645 97.941 107.684 97.4267 107.423 101.598Z" fill="black"/>
<path d="M93.9016 98.297V97.3463C93.9016 97.2976 93.8759 97.2513 93.8308 97.2147C92.856 96.4809 82.1525 88.5168 81.9016 93.2192C81.6378 98.1093 81.5928 97.5023 81.9016 102.422C82.1976 107.122 92.8625 99.16 93.834 98.4262C93.8759 98.3921 93.9016 98.3458 93.9016 98.297ZM92.9686 98.0996C92.9686 98.141 92.9493 98.18 92.9075 98.2093C92.0839 98.8309 83.0405 105.583 82.7895 101.598C82.5289 97.4268 82.5643 97.9411 82.7895 93.7945C83.0051 89.8064 92.0807 96.5589 92.9075 97.183C92.9461 97.2122 92.9686 97.2512 92.9686 97.2951V98.0996Z" fill="black"/>
<path d="M95.4168 97.2706H94.7991C94.6576 97.2706 94.5417 97.3584 94.5417 97.4657V98.175C94.5417 98.2823 94.6576 98.3701 94.7991 98.3701H95.4168C95.5584 98.3701 95.6742 98.2823 95.6742 98.175V97.4657C95.6742 97.3584 95.5584 97.2706 95.4168 97.2706Z" fill="black"/>
<path d="M85.6722 107.699C84.5205 108.945 83.2014 109.942 83.6165 110.127C84.0315 110.315 86.3285 109.194 86.3285 109.194C86.3285 109.194 85.4728 111 86.0808 111C86.6888 111 94.706 98.9064 94.4647 98.7918C94.2266 98.6797 86.824 106.454 85.6722 107.699Z" fill="black"/>
<path d="M95.6937 98.7942C95.4846 98.9551 104.612 110.183 104.991 110.076C105.371 109.969 104.615 108.162 104.615 108.162C104.615 108.162 106.812 108.911 107.169 108.694C107.526 108.477 95.8996 98.6334 95.6937 98.7942Z" fill="black"/>
<path d="M66.9966 0H66.5398V55.1295H66.9966V0Z" fill="black"/>
<path d="M68.2867 52.17C68.2867 52.8063 67.6079 53.3206 66.7682 53.3206C65.9286 53.3206 65.2498 52.8063 65.2498 52.17C65.2498 51.5338 65.9286 51.0194 66.7682 51.0194C67.6079 51.0194 68.2867 51.5338 68.2867 52.17Z" fill="black"/>
<path d="M68.2867 48.7158C68.2867 49.352 67.6079 49.8664 66.7682 49.8664C65.9286 49.8664 65.2498 49.352 65.2498 48.7158C65.2498 48.0795 65.9286 47.5652 66.7682 47.5652C67.6079 47.5652 68.2867 48.0795 68.2867 48.7158Z" fill="black"/>
<path d="M67.6302 56.1972L68.071 55.1295H65.4651L65.819 56.2069C66.131 56.1777 66.4431 56.1582 66.7648 56.1582C67.0608 56.1582 67.3471 56.1728 67.6302 56.1972Z" fill="black"/>
<path d="M73.7076 71.8133H59.121C57.6057 71.8133 56.3735 70.8821 56.3735 69.7315V62.272H76.4518V69.7315C76.455 70.8797 75.2261 71.8133 73.7076 71.8133Z" fill="black"/>
<path d="M75.345 58.5715H57.4866C56.3638 58.5715 55.4534 59.2614 55.4534 60.1122V61.7796H77.3783V60.1122C77.3751 59.2614 76.4678 58.5715 75.345 58.5715Z" fill="black"/>
<path d="M75.0234 54.52C74.8657 51.5874 68.2094 56.5336 67.5724 57.0139C67.5403 57.0382 67.5242 57.0699 67.5242 57.1041V57.6867C67.5242 57.7208 67.5403 57.7525 67.5724 57.7769C68.2062 58.2571 74.84 63.2008 75.0234 60.2707C75.2164 57.1967 75.1874 57.5745 75.0234 54.52ZM74.4636 59.7563C74.3092 62.2404 68.6823 58.0499 68.1451 57.6428C68.1193 57.6233 68.1033 57.594 68.1033 57.5648V57.0699C68.1033 57.0407 68.1161 57.0139 68.1451 56.9919C68.6856 56.5848 74.3317 52.3919 74.4636 54.8784C74.6051 57.4697 74.6277 57.1479 74.4636 59.7563Z" fill="black"/>
<path d="M66.012 57.6915V57.0967C66.012 57.065 65.9959 57.0358 65.967 57.0138C65.3589 56.5555 58.6705 51.5777 58.5096 54.5176C58.3455 57.5745 58.3166 57.1942 58.5096 60.2682C58.693 63.2057 65.3589 58.2303 65.967 57.772C65.9992 57.7525 66.012 57.7232 66.012 57.6915ZM65.4297 57.5696C65.4297 57.5965 65.4169 57.6208 65.3911 57.6379C64.8764 58.0279 59.2238 62.2477 59.0662 59.7563C58.9021 57.1479 58.9279 57.4697 59.0662 54.8784C59.2013 52.387 64.8732 56.6067 65.3879 56.9968C65.4136 57.0163 65.4265 57.0407 65.4265 57.065V57.5696H65.4297Z" fill="black"/>
<path d="M66.9612 57.0529H66.5752C66.4851 57.0529 66.4143 57.1065 66.4143 57.1747V57.6184C66.4143 57.6867 66.4851 57.7403 66.5752 57.7403H66.9612C67.0513 57.7403 67.1221 57.6867 67.1221 57.6184V57.1747C67.1221 57.1065 67.0481 57.0529 66.9612 57.0529Z" fill="black"/>
<path d="M66.366 58.0035C66.3338 57.9889 66.0797 58.2132 65.7097 58.5715H66.0668C66.2759 58.2278 66.3918 58.0157 66.366 58.0035Z" fill="black"/>
<path d="M59.5843 65.0876C59.8449 65.2046 61.2798 64.5026 61.2798 64.5026C61.2798 64.5026 60.7457 65.6312 61.1253 65.6312C61.3023 65.6312 62.4669 64.015 63.654 62.272H62.0937C61.5178 62.8766 61.0578 63.3641 60.868 63.5689C60.1505 64.349 59.3269 64.9706 59.5843 65.0876Z" fill="black"/>
<path d="M66.0701 58.5715H65.713C64.9441 59.315 63.6476 60.6534 62.5698 61.7796H63.9918C64.8379 60.5217 65.6486 59.2712 66.0701 58.5715Z" fill="black"/>
<path d="M67.1349 58.0036C67.1123 58.0206 67.2571 58.2327 67.5081 58.5716H67.9198C67.4598 58.2059 67.1574 57.9841 67.1349 58.0036Z" fill="black"/>
<path d="M72.9419 65.0535C73.18 64.9852 72.707 63.859 72.707 63.859C72.707 63.859 74.0808 64.327 74.3028 64.1905C74.3832 64.1418 73.4888 63.3105 72.3081 62.272H70.4583C71.7033 63.7712 72.8389 65.0827 72.9419 65.0535Z" fill="black"/>
<path d="M71.745 61.7796C70.3938 60.607 68.8367 59.3004 67.9199 58.5715H67.5081C68.0357 59.2809 69.0459 60.5485 70.056 61.7796H71.745Z" fill="black"/>
<path d="M75.0138 58.5715H74.5377C74.5184 58.8909 74.4959 59.2712 74.4669 59.7563C74.3511 61.5821 71.2916 59.805 69.4578 58.5715H68.676C70.7414 60.0049 74.8819 62.5767 75.0267 60.2706C75.0717 59.5442 75.1039 59.0128 75.1264 58.5813C75.0878 58.5788 75.0524 58.5715 75.0138 58.5715Z" fill="#898989"/>
<path d="M64.0787 58.5715C62.245 59.805 59.1822 61.5797 59.0696 59.7563C59.0407 59.2736 59.0149 58.8909 58.9988 58.5715H58.4133C58.4359 59.0055 58.468 59.5369 58.5131 60.2706C58.6578 62.5767 62.7983 60.0049 64.8637 58.5715H64.0787Z" fill="#898989"/>
<path d="M60.871 63.5689C60.1504 64.3465 59.3268 64.9706 59.5874 65.0876C59.8479 65.2046 61.2828 64.5026 61.2828 64.5026C61.2828 64.5026 60.7487 65.6312 61.1284 65.6312C61.3053 65.6312 62.4699 64.015 63.6571 62.272H62.0967C61.5177 62.8766 61.0576 63.3641 60.871 63.5689Z" fill="#898989"/>
<path d="M62.5667 61.7796H63.9886C64.838 60.5217 65.6487 59.2712 66.0701 58.5715H65.7098C64.9409 59.3175 63.6412 60.6582 62.5667 61.7796Z" fill="#898989"/>
<path d="M70.4614 62.272C71.7032 63.7712 72.8389 65.0827 72.9418 65.0535C73.1799 64.9852 72.707 63.859 72.707 63.859C72.707 63.859 74.0807 64.327 74.3027 64.1905C74.3831 64.1418 73.4888 63.3105 72.3081 62.272H70.4614Z" fill="#898989"/>
<path d="M67.9201 58.5715H67.5083C68.0359 59.2809 69.0461 60.5485 70.0563 61.7796H71.7485C70.3973 60.607 68.837 59.3004 67.9201 58.5715Z" fill="#898989"/>
<path d="M67.2347 58.5715H66.3018V71.8109H67.2347V58.5715Z" fill="#898989"/>
<path d="M187.62 44.0597H173.034C171.519 44.0597 170.286 43.1285 170.286 41.9778V34.5184H190.365V41.9778C190.365 43.1285 189.136 44.0597 187.62 44.0597Z" fill="black"/>
<path d="M189.255 30.8203H171.397C170.274 30.8203 169.363 31.5102 169.363 32.361V34.0284H191.288V32.361C191.288 31.5102 190.378 30.8203 189.255 30.8203Z" fill="black"/>
<path d="M173.906 37.3364C174.166 37.4534 175.601 36.7513 175.601 36.7513C175.601 36.7513 175.067 37.88 175.447 37.88C175.624 37.88 176.788 36.2638 177.976 34.5208H176.415C175.839 35.1254 175.379 35.6129 175.189 35.8177C174.472 36.5953 173.645 37.2194 173.906 37.3364Z" fill="#898989"/>
<path d="M180.388 30.8203H180.028C179.259 31.5663 177.959 32.907 176.885 34.0284H178.307C179.156 32.7705 179.97 31.5199 180.388 30.8203Z" fill="#898989"/>
<path d="M187.263 37.3023C187.502 37.234 187.029 36.1078 187.029 36.1078C187.029 36.1078 188.402 36.5758 188.624 36.4393C188.705 36.3906 187.81 35.5593 186.63 34.5208H184.78C186.022 36.02 187.16 37.3315 187.263 37.3023Z" fill="#898989"/>
<path d="M186.067 34.0284C184.715 32.8558 183.158 31.5492 182.241 30.8203H181.83C182.357 31.5297 183.367 32.7973 184.378 34.0284H186.067Z" fill="#898989"/>
<path d="M181.389 0H180.932V29.2431H181.389V0Z" fill="black"/>
<path d="M182.679 26.2813C182.679 26.9175 182 27.4319 181.161 27.4319C180.321 27.4319 179.642 26.9175 179.642 26.2813C179.642 25.645 180.321 25.1307 181.161 25.1307C182 25.1307 182.679 25.645 182.679 26.2813Z" fill="black"/>
<path d="M182.679 22.827C182.679 23.4633 182 23.9776 181.161 23.9776C180.321 23.9776 179.642 23.4633 179.642 22.827C179.642 22.1908 180.321 21.6764 181.161 21.6764C182 21.6764 182.679 22.1932 182.679 22.827Z" fill="black"/>
<path d="M182.023 30.3108L182.464 29.2431H179.858L180.212 30.3206C180.524 30.2913 180.836 30.2718 181.157 30.2718C181.453 30.2694 181.74 30.2865 182.023 30.3108Z" fill="black"/>
<path d="M181.936 34.5208H180.244V44.0597H181.936V34.5208Z" fill="#898989"/>
<path d="M182.103 30.8203H180.073V34.0284H182.103V30.8203Z" fill="#898989"/>
</g>
<path d="M233.755 88.2364C227.114 88.2364 220.194 93.0509 227.767 96.8197C233.655 99.7498 233.755 101.573 233.755 101.573C233.755 101.573 233.854 99.7498 239.742 96.8197C247.312 93.0485 240.395 88.2364 233.755 88.2364Z" fill="white"/>
<path d="M235.878 88.3949C234.9 87.7586 234.729 86.7567 234.729 86.7567H233.751H232.773C232.773 86.7567 232.603 87.7586 231.625 88.3949C230.647 89.0311 230.647 89.0311 230.647 89.0311H233.748H236.849C236.853 89.0311 236.853 89.0311 235.878 88.3949Z" fill="white"/>
<path d="M234.987 87.2077H232.522C232.439 87.2077 232.368 87.1565 232.368 87.0907V86.8713C232.368 86.8079 232.435 86.7543 232.522 86.7543H234.987C235.07 86.7543 235.141 86.8055 235.141 86.8713V87.0907C235.141 87.1565 235.07 87.2077 234.987 87.2077Z" fill="white"/>
<path d="M234.646 87.1443H232.831C232.783 87.1443 232.654 87.1443 232.654 87.1077L232.744 86.6592C232.744 86.6226 232.783 86.5958 232.828 86.5958H234.642C234.691 86.5958 234.726 86.6251 234.726 86.6592L234.829 87.1029C234.836 87.1419 234.691 87.1443 234.646 87.1443Z" fill="white"/>
<path d="M233.983 0H233.526V88.4314H233.983V0Z" fill="white"/>
<path d="M234.836 81.7813C234.836 82.2371 234.347 82.6077 233.745 82.6077C233.143 82.6077 232.654 82.2371 232.654 81.7813C232.654 81.3254 233.143 80.9549 233.745 80.9549C234.347 80.9549 234.836 81.3254 234.836 81.7813Z" fill="white"/>
<path d="M234.836 84.5822C234.836 85.0356 234.35 85.4013 233.755 85.4013C233.159 85.4013 232.674 85.0332 232.674 84.5822C232.674 84.1288 233.159 83.7631 233.755 83.7631C234.35 83.7631 234.836 84.1312 234.836 84.5822Z" fill="white"/>
<path d="M6.41768 41.0247C6.41768 41.0247 -1.20055 41.1271 0.163525 46.7363C1.5276 52.3456 6.1217 52.231 6.41768 55.4025C6.71365 52.231 11.3078 52.3456 12.6718 46.7363C14.0359 41.1247 6.41768 41.0247 6.41768 41.0247Z" fill="white"/>
<path d="M7.682 40.3373H5.15332V42.2533H7.682V40.3373Z" fill="white"/>
<path d="M6.64605 0H6.18921V41.934H6.64605V0Z" fill="white"/>
<path d="M7.35359 38.2457C7.35359 38.6382 6.93536 38.9551 6.41739 38.9551C5.89943 38.9551 5.4812 38.6382 5.4812 38.2457C5.4812 37.8532 5.89943 37.5363 6.41739 37.5363C6.93536 37.5363 7.35359 37.8532 7.35359 38.2457Z" fill="white"/>
<path d="M7.35359 35.8689C7.35359 36.2613 6.93536 36.5783 6.41739 36.5783C5.89943 36.5783 5.4812 36.2613 5.4812 35.8689C5.4812 35.4764 5.89943 35.1595 6.41739 35.1595C6.93536 35.1595 7.35359 35.4764 7.35359 35.8689Z" fill="white"/>
<path d="M165.039 67.4961C164.679 60.8045 149.481 72.0913 148.027 73.1882C147.953 73.2443 147.914 73.3174 147.914 73.3954V74.7265C147.914 74.8045 147.953 74.8776 148.027 74.9337C149.475 76.0282 164.621 87.3149 165.039 80.6258C165.48 73.6051 165.416 74.4729 165.039 67.4961Z" fill="white"/>
<path d="M127.347 67.4961C127.711 60.7875 142.979 72.1473 144.369 73.1956C144.437 73.2468 144.469 73.3126 144.469 73.3833V74.7387C144.469 74.8094 144.434 74.8752 144.369 74.9239C142.986 75.9722 127.769 87.332 127.347 80.6234C126.906 73.6051 126.971 74.4729 127.347 67.4961Z" fill="white"/>
<path d="M146.833 74.8435H145.556C145.463 74.8435 145.389 74.7874 145.389 74.7167V73.4028C145.389 73.3321 145.463 73.276 145.556 73.276H146.833C146.927 73.276 147.001 73.3321 147.001 73.4028V74.7167C147.001 74.7874 146.923 74.8435 146.833 74.8435Z" fill="white"/>
<path d="M145.276 75.448C144.932 75.2847 134.37 86.3788 132.726 88.1559C131.086 89.9331 129.2 91.3543 129.795 91.6224C130.387 91.8881 133.666 90.289 133.666 90.289C133.666 90.289 132.446 92.8657 133.315 92.8657C134.184 92.8657 145.624 75.6113 145.276 75.448Z" fill="white"/>
<path d="M147.026 75.4505C147.322 75.2213 163.91 89.2651 163.399 89.5747C162.887 89.8843 159.754 88.8166 159.754 88.8166C159.754 88.8166 160.828 91.3933 160.288 91.5444C159.75 91.698 146.73 75.6772 147.026 75.4505Z" fill="white"/>
<path d="M146.457 0H146V71.5403H146.457V0Z" fill="white"/>
<path d="M147.747 68.5809C147.747 69.2172 147.068 69.7315 146.229 69.7315C145.389 69.7315 144.71 69.2172 144.71 68.5809C144.71 67.9447 145.389 67.4303 146.229 67.4303C147.068 67.4303 147.747 67.9447 147.747 68.5809Z" fill="white"/>
<path d="M147.747 65.1266C147.747 65.7629 147.068 66.2772 146.229 66.2772C145.389 66.2772 144.71 65.7629 144.71 65.1266C144.71 64.4904 145.389 63.976 146.229 63.976C147.068 63.976 147.747 64.4904 147.747 65.1266Z" fill="white"/>
<path d="M147.056 72.608L147.496 71.5403H144.89L145.244 72.6178C145.556 72.5885 145.868 72.569 146.19 72.569C146.486 72.569 146.772 72.5836 147.056 72.608Z" fill="white"/>
<path d="M120.626 17.4274H118.429C118.345 17.4274 118.275 17.3762 118.275 17.3104V17.1348C118.275 17.0715 118.342 17.0178 118.429 17.0178H120.626C120.71 17.0178 120.781 17.069 120.781 17.1348V17.3104C120.781 17.3762 120.71 17.4274 120.626 17.4274Z" fill="white"/>
<path d="M120.34 17.3713H118.699C118.658 17.3713 118.542 17.3713 118.542 17.3372L118.625 16.9325C118.625 16.9008 118.661 16.874 118.703 16.874H120.343C120.385 16.874 120.421 16.9008 120.421 16.9325L120.514 17.3348C120.514 17.3664 120.385 17.3713 120.34 17.3713Z" fill="white"/>
<path d="M119.755 0H119.298V17.1519H119.755V0Z" fill="white"/>
<path d="M120.761 14.3973C120.761 14.9141 120.208 15.3309 119.529 15.3309C118.847 15.3309 118.297 14.9117 118.297 14.3973C118.297 13.8805 118.85 13.4636 119.529 13.4636C120.208 13.4612 120.761 13.8805 120.761 14.3973Z" fill="white"/>
<path d="M120.746 11.0625C120.746 11.5719 120.202 11.9839 119.53 11.9839C118.857 11.9839 118.313 11.5719 118.313 11.0625C118.313 10.553 118.857 10.141 119.53 10.141C120.199 10.141 120.746 10.553 120.746 11.0625Z" fill="white"/>
<path d="M120.746 7.72762C120.746 8.23711 120.202 8.64908 119.53 8.64908C118.857 8.64908 118.313 8.23711 118.313 7.72762C118.313 7.21813 118.857 6.80615 119.53 6.80615C120.199 6.80615 120.746 7.21813 120.746 7.72762Z" fill="white"/>
<path d="M137.774 45.8051C137.774 45.8051 133.55 43.009 133.736 42.4435C133.923 41.8779 138.076 42.4435 138.076 42.4435C138.076 42.4435 129.068 34.945 129.326 34.3282C129.583 33.7091 133.875 34.3282 133.875 34.3282C133.875 34.3282 124.867 26.4763 125.053 26.1057C125.24 25.7352 129.113 26.1057 129.113 26.1057L119.523 16.8765L109.933 26.1057C109.933 26.1057 113.806 25.7693 113.993 26.1057C114.179 26.4421 105.171 34.3282 105.171 34.3282C105.171 34.3282 109.605 33.7797 109.72 34.3282C109.836 34.8767 100.97 42.4435 100.97 42.4435C100.97 42.4435 105.123 41.9486 105.31 42.4435C105.496 42.9383 101.272 45.8051 101.272 45.8051C106.497 44.2742 112.773 43.3796 119.52 43.3796C126.276 43.382 132.553 44.2766 137.774 45.8051Z" fill="white"/>
<path d="M200.425 55.0661C200.132 55.1782 200.016 55.4488 200.168 55.6706L204.16 61.6041C204.54 62.1672 204.244 62.8547 203.501 63.1423C199.907 64.5318 197.301 68.3201 199.135 71.043L199.531 71.6305C200.254 72.7056 201.988 73.1322 203.404 72.5837L212.946 68.8978L217.962 66.9598C219.664 66.3041 220.339 64.7268 219.47 63.4373L211.37 51.3997C211.202 51.1535 210.803 51.056 210.479 51.1803L200.425 55.0661Z" fill="white"/>
<path d="M208.622 46.8265L196.896 51.7069C196.519 51.8629 196.39 52.2286 196.619 52.5065L198.42 54.715C198.594 54.9271 198.954 55.0051 199.247 54.8906L210.781 50.4344C211.144 50.293 211.312 49.9688 211.167 49.6787L209.919 47.1873C209.719 46.7948 209.108 46.6242 208.622 46.8265Z" fill="white"/>
<path d="M202.14 61.5749C202.098 62.0575 201.779 62.4719 201.316 62.7523C201.326 62.7523 201.335 62.7547 201.348 62.7572C202.397 62.8108 203.308 62.2062 203.378 61.4115C203.449 60.6168 202.651 59.9269 201.602 59.8733C201.332 59.8587 201.072 59.8904 200.83 59.9586C201.651 60.2268 202.204 60.8606 202.14 61.5749Z" fill="white"/>
<path d="M198.118 61.3774C198.186 60.6022 199.07 60.0171 200.09 60.0683C201.113 60.1195 201.885 60.7899 201.818 61.5626C201.75 62.3378 200.866 62.9229 199.846 62.8717C198.823 62.8205 198.051 62.1501 198.118 61.3774Z" fill="white"/>
<path d="M201.297 59.7466L201.4 59.7368L200.891 56.853L200.75 56.6506L201.297 59.7466Z" fill="white"/>
<path d="M200.01 59.9269L200.1 59.9294L200.431 56.1679L200.351 56.0314L200.01 59.9269Z" fill="white"/>
<path d="M209.417 0H208.96V45.3102H209.417V0Z" fill="white"/>
<path d="M210.707 42.3508C210.707 42.9871 210.028 43.5014 209.188 43.5014C208.348 43.5014 207.67 42.9871 207.67 42.3508C207.67 41.7146 208.348 41.2002 209.188 41.2002C210.028 41.2002 210.707 41.7146 210.707 42.3508Z" fill="white"/>
<path d="M210.707 38.8965C210.707 39.5328 210.028 40.0471 209.188 40.0471C208.348 40.0471 207.67 39.5328 207.67 38.8965C207.67 38.2603 208.348 37.7459 209.188 37.7459C210.028 37.7459 210.707 38.2603 210.707 38.8965Z" fill="white"/>
<path d="M210.015 46.378L210.456 45.3102H207.85L208.204 46.3877C208.516 46.3585 208.828 46.339 209.15 46.339C209.446 46.339 209.732 46.3536 210.015 46.378Z" fill="white"/>
<path d="M24.0281 78.2417C23.671 78.249 23.3879 78.4757 23.3976 78.7463L23.6646 86.0327C23.6903 86.725 22.9697 87.3003 22.0592 87.3198C17.6453 87.4124 12.7198 90.228 12.8421 93.575L12.8678 94.2966C12.9161 95.6154 14.367 96.6539 16.1075 96.6198L27.8276 96.3736L33.9884 96.2444C36.0764 96.2005 37.7236 94.8817 37.6656 93.2996L37.1252 78.5171C37.1155 78.2148 36.7809 77.9759 36.382 77.9833L24.0281 78.2417Z" fill="white"/>
<path d="M37.2411 73.0176L22.6223 73.6636C22.1526 73.6856 21.7987 74 21.8502 74.3559L22.262 77.1788C22.3006 77.4519 22.6094 77.6542 22.9698 77.6469L37.1349 77.3495C37.5821 77.3397 37.9456 77.0764 37.9842 76.74L38.2963 73.8318C38.3446 73.376 37.8491 72.9908 37.2411 73.0176Z" fill="white"/>
<path d="M30.0733 0H29.6165V71.7426H30.0733V0Z" fill="white"/>
<path d="M31.3634 68.7832C31.3634 69.4195 30.6846 69.9339 29.8449 69.9339C29.0052 69.9339 28.3264 69.4195 28.3264 68.7832C28.3264 68.147 29.0052 67.6326 29.8449 67.6326C30.6846 67.6326 31.3634 68.147 31.3634 68.7832Z" fill="white"/>
<path d="M31.3634 65.329C31.3634 65.9652 30.6846 66.4796 29.8449 66.4796C29.0052 66.4796 28.3264 65.9652 28.3264 65.329C28.3264 64.6927 29.0052 64.1783 29.8449 64.1783C30.6846 64.1783 31.3634 64.6927 31.3634 65.329Z" fill="white"/>
<path d="M30.6749 72.8103L31.1157 71.7426H28.5098L28.8637 72.8201C29.1757 72.7908 29.4878 72.7713 29.8095 72.7713C30.1023 72.7713 30.3886 72.786 30.6749 72.8103Z" fill="white"/>
<path d="M89.3816 0H88.9248V89.4796H89.3816V0Z" fill="white"/>
<path d="M90.6715 86.5202C90.6715 87.1565 89.9927 87.6709 89.153 87.6709C88.3133 87.6709 87.6345 87.1565 87.6345 86.5202C87.6345 85.884 88.3133 85.3696 89.153 85.3696C89.9927 85.3696 90.6715 85.884 90.6715 86.5202Z" fill="white"/>
<path d="M90.6715 83.066C90.6715 83.7022 89.9927 84.2166 89.153 84.2166C88.3133 84.2166 87.6345 83.7022 87.6345 83.066C87.6345 82.4297 88.3133 81.9153 89.153 81.9153C89.9927 81.9153 90.6715 82.4297 90.6715 83.066Z" fill="white"/>
<path d="M90.0152 90.5473L90.456 89.4796H87.8501L88.204 90.5571C88.5161 90.5278 88.8281 90.5083 89.1498 90.5083C89.4458 90.5083 89.7321 90.523 90.0152 90.5473Z" fill="white"/>
<path d="M102.363 87.471C102.109 82.7807 91.4598 90.6912 90.44 91.4615C90.3885 91.5005 90.3628 91.5517 90.3628 91.6078V92.539C90.3628 92.5951 90.3885 92.6463 90.44 92.6853C91.4566 93.4532 102.07 101.364 102.363 96.6759C102.672 91.7516 102.627 92.3586 102.363 87.471ZM101.468 95.8495C101.221 99.8254 92.2191 93.1168 91.3569 92.4659C91.3119 92.4318 91.2893 92.3903 91.2893 92.344V91.5542C91.2893 91.5079 91.3119 91.464 91.3569 91.4298C92.2223 90.779 101.253 84.0703 101.468 88.0463C101.69 92.1929 101.729 91.6761 101.468 95.8495Z" fill="white"/>
<path d="M87.9468 92.5463V91.5956C87.9468 91.5468 87.9211 91.5005 87.876 91.464C86.9012 90.7302 76.1977 82.7661 75.9436 87.4685C75.6798 92.3586 75.6347 91.7516 75.9436 96.671C76.2396 101.371 86.9044 93.4093 87.876 92.6755C87.9211 92.6414 87.9468 92.5951 87.9468 92.5463ZM87.0138 92.3488C87.0138 92.3903 86.9945 92.4293 86.9527 92.4585C86.1291 93.0802 77.0857 99.8327 76.8347 95.847C76.5742 91.676 76.6095 92.1904 76.8347 88.0438C77.0503 84.0557 86.1259 90.8082 86.9527 91.4323C86.9913 91.4615 87.0138 91.5005 87.0138 91.5444V92.3488Z" fill="white"/>
<path d="M89.462 91.5225H88.8443C88.7027 91.5225 88.5869 91.6102 88.5869 91.7175V92.4269C88.5869 92.5341 88.7027 92.6219 88.8443 92.6219H89.462C89.6035 92.6219 89.7194 92.5341 89.7194 92.4269V91.7175C89.7194 91.6078 89.6035 91.5225 89.462 91.5225Z" fill="white"/>
<path d="M79.7171 101.951C78.5654 103.197 77.2464 104.194 77.6614 104.379C78.0764 104.567 80.3734 103.445 80.3734 103.445C80.3734 103.445 79.5177 105.252 80.1257 105.252C80.7338 105.252 88.7509 93.1582 88.5096 93.0436C88.2683 92.929 80.8657 100.705 79.7171 101.951Z" fill="white"/>
<path d="M89.7386 93.0436C89.5295 93.2045 98.6566 104.433 99.0362 104.325C99.4158 104.218 98.6598 102.412 98.6598 102.412C98.6598 102.412 100.857 103.16 101.214 102.943C101.571 102.726 89.9445 92.8827 89.7386 93.0436Z" fill="white"/>
<path d="M61.0416 0H60.5847V49.3813H61.0416V0Z" fill="white"/>
<path d="M62.3317 46.4194C62.3317 47.0557 61.6529 47.57 60.8132 47.57C59.9735 47.57 59.2947 47.0557 59.2947 46.4194C59.2947 45.7832 59.9735 45.2688 60.8132 45.2688C61.6529 45.2688 62.3317 45.7832 62.3317 46.4194Z" fill="white"/>
<path d="M62.3317 42.9651C62.3317 43.6014 61.6529 44.1157 60.8132 44.1157C59.9735 44.1157 59.2947 43.6014 59.2947 42.9651C59.2947 42.3289 59.9735 41.8145 60.8132 41.8145C61.6529 41.8145 62.3317 42.3289 62.3317 42.9651Z" fill="white"/>
<path d="M61.6752 50.4466L62.1159 49.3788H59.51L59.8639 50.4563C60.176 50.4271 60.488 50.4076 60.8097 50.4076C61.1057 50.4076 61.392 50.4246 61.6752 50.4466Z" fill="white"/>
<path d="M67.7525 66.0627H53.1659C51.6506 66.0627 50.4185 65.1315 50.4185 63.9809V56.5214H70.4967V63.9809C70.4999 65.1315 69.2678 66.0627 67.7525 66.0627Z" fill="white"/>
<path d="M69.39 52.8234H51.5315C50.4087 52.8234 49.4983 53.5132 49.4983 54.364V56.0314H71.42V54.3616C71.42 53.5108 70.5128 52.8234 69.39 52.8234Z" fill="white"/>
<path d="M69.0683 48.7694C68.9106 45.8368 62.2543 50.7829 61.6173 51.2632C61.5852 51.2876 61.5691 51.3193 61.5691 51.3534V51.936C61.5691 51.9701 61.5852 52.0018 61.6173 52.0262C62.2511 52.5064 68.8849 57.4502 69.0683 54.52C69.2613 51.446 69.2324 51.8263 69.0683 48.7694ZM68.5085 54.0056C68.3541 56.4921 62.7273 52.2992 62.19 51.8921C62.1643 51.8726 62.1482 51.8434 62.1482 51.8141V51.3193C62.1482 51.29 62.161 51.2632 62.19 51.2412C62.7305 50.8341 68.3766 46.6412 68.5085 49.1277C68.6468 51.7215 68.6726 51.3997 68.5085 54.0056Z" fill="white"/>
<path d="M60.0569 51.9409V51.3461C60.0569 51.3144 60.0409 51.2852 60.0119 51.2632C59.4039 50.8049 52.7154 45.8271 52.5545 48.767C52.3905 51.8239 52.3615 51.4436 52.5545 54.5176C52.7379 57.4551 59.4039 52.4797 60.0119 52.0214C60.0441 52.0019 60.0569 51.9726 60.0569 51.9409ZM59.4746 51.819C59.4746 51.8459 59.4618 51.8702 59.436 51.8873C58.9213 52.2773 53.2688 56.4971 53.1111 54.0057C52.947 51.3973 52.9728 51.7191 53.1111 49.1278C53.2462 46.6364 58.9181 50.8561 59.4328 51.2462C59.4586 51.2657 59.4714 51.29 59.4714 51.3144V51.819H59.4746Z" fill="white"/>
<path d="M61.0061 51.3022H60.6201C60.53 51.3022 60.4592 51.3558 60.4592 51.4241V51.8677C60.4592 51.936 60.53 51.9896 60.6201 51.9896H61.0061C61.0962 51.9896 61.167 51.936 61.167 51.8677V51.4241C61.167 51.3558 61.093 51.3022 61.0061 51.3022Z" fill="white"/>
<path d="M60.4109 52.2529C60.3788 52.2383 60.1246 52.465 59.7546 52.8209H60.1117C60.3209 52.4772 60.4367 52.2651 60.4109 52.2529Z" fill="white"/>
<path d="M53.6292 59.337C53.8898 59.454 55.3247 58.752 55.3247 58.752C55.3247 58.752 54.7906 59.8806 55.1703 59.8806C55.3472 59.8806 56.5118 58.2644 57.6989 56.5214H56.1386C55.5628 57.126 55.1027 57.6135 54.9129 57.8183C54.1955 58.5984 53.3719 59.2224 53.6292 59.337Z" fill="white"/>
<path d="M60.115 52.8234H59.7579C58.989 53.5669 57.6925 54.9052 56.6147 56.0314H58.0367C58.8828 54.7711 59.6936 53.523 60.115 52.8234Z" fill="white"/>
<path d="M61.1766 52.2529C61.1541 52.27 61.2989 52.482 61.5498 52.8209H61.9616C61.5048 52.4552 61.2023 52.2334 61.1766 52.2529Z" fill="white"/>
<path d="M66.9868 59.3053C67.2249 59.2371 66.752 58.1108 66.752 58.1108C66.752 58.1108 68.1257 58.5789 68.3477 58.4424C68.4281 58.3936 67.5337 57.5623 66.353 56.5239H64.5032C65.7482 58.0231 66.8839 59.3346 66.9868 59.3053Z" fill="white"/>
<path d="M65.79 56.029C64.4388 54.8564 62.8817 53.5498 61.9648 52.8209H61.553C62.0806 53.5303 63.0908 54.7979 64.101 56.029H65.79Z" fill="white"/>
<path d="M69.0587 52.8234H68.5826C68.5633 53.1427 68.5408 53.523 68.5118 54.0081C68.396 55.834 65.3365 54.0569 63.5027 52.8234H62.7209C64.7864 54.2568 68.9268 56.8286 69.0716 54.5225C69.1166 53.796 69.1488 53.2646 69.1713 52.8331C69.1327 52.8282 69.0941 52.8234 69.0587 52.8234Z" fill="#A0A0A0"/>
<path d="M58.1237 52.8234C56.2899 54.0569 53.2272 55.8315 53.1146 54.0081C53.0856 53.5254 53.0599 53.1427 53.0438 52.8234H52.4583C52.4808 53.2573 52.5129 53.7887 52.558 54.5225C52.7028 56.8286 56.8432 54.2568 58.9086 52.8234H58.1237Z" fill="#A0A0A0"/>
<path d="M54.9159 57.8207C54.1953 58.5984 53.3717 59.2224 53.6323 59.3395C53.8929 59.4565 55.3277 58.7544 55.3277 58.7544C55.3277 58.7544 54.7937 59.8831 55.1733 59.8831C55.3502 59.8831 56.5148 58.2668 57.702 56.5239H56.1417C55.5626 57.1284 55.1025 57.616 54.9159 57.8207Z" fill="#A0A0A0"/>
<path d="M56.6116 56.029H58.0336C58.8829 54.7711 59.6936 53.5206 60.1151 52.8209H59.7547C58.9858 53.5669 57.6861 54.9076 56.6116 56.029Z" fill="#A0A0A0"/>
<path d="M64.5063 56.5239C65.7482 58.0231 66.8838 59.3346 66.9868 59.3053C67.2248 59.2371 66.7519 58.1108 66.7519 58.1108C66.7519 58.1108 68.1256 58.5789 68.3476 58.4424C68.4281 58.3936 67.5337 57.5623 66.353 56.5239H64.5063Z" fill="#A0A0A0"/>
<path d="M61.9648 52.8234H61.553C62.0806 53.5327 63.0908 54.8004 64.101 56.0314H65.7932C64.442 54.8564 62.8817 53.5498 61.9648 52.8234Z" fill="#A0A0A0"/>
<path d="M61.2797 52.8234H60.3467V66.0627H61.2797V52.8234Z" fill="#A0A0A0"/>
<path d="M181.666 38.3115H167.079C165.564 38.3115 164.332 37.3803 164.332 36.2297V28.7702H184.41V36.2297C184.41 37.3803 183.181 38.3115 181.666 38.3115Z" fill="white"/>
<path d="M183.3 25.0697H165.441C164.319 25.0697 163.408 25.7596 163.408 26.6104V28.2778H185.333V26.6104C185.333 25.7596 184.423 25.0697 183.3 25.0697Z" fill="white"/>
<path d="M167.951 31.5858C168.211 31.7028 169.646 31.0007 169.646 31.0007C169.646 31.0007 169.112 32.1294 169.492 32.1294C169.669 32.1294 170.833 30.5132 172.021 28.7702H170.46C169.884 29.3748 169.424 29.8623 169.235 30.0671C168.514 30.8472 167.69 31.4688 167.951 31.5858Z" fill="#A0A0A0"/>
<path d="M174.433 25.0697H174.073C173.304 25.8157 172.004 27.1564 170.93 28.2778H172.352C173.201 27.0199 174.012 25.7693 174.433 25.0697Z" fill="#A0A0A0"/>
<path d="M181.309 31.5517C181.547 31.4834 181.074 30.3572 181.074 30.3572C181.074 30.3572 182.447 30.8252 182.669 30.6887C182.75 30.6399 181.856 29.8087 180.675 28.7702H178.825C180.067 30.2694 181.206 31.5809 181.309 31.5517Z" fill="#A0A0A0"/>
<path d="M180.112 28.2778C178.761 27.1052 177.203 25.7986 176.287 25.0697H175.875C176.402 25.7791 177.413 27.0467 178.423 28.2778H180.112Z" fill="#A0A0A0"/>
<path d="M175.434 0H174.977V23.4925H175.434V0Z" fill="white"/>
<path d="M176.724 20.5331C176.724 21.1693 176.045 21.6837 175.205 21.6837C174.366 21.6837 173.687 21.1693 173.687 20.5331C173.687 19.8968 174.366 19.3824 175.205 19.3824C176.045 19.3824 176.724 19.8968 176.724 20.5331Z" fill="white"/>
<path d="M176.724 17.0788C176.724 17.7151 176.045 18.2294 175.205 18.2294C174.366 18.2294 173.687 17.7151 173.687 17.0788C173.687 16.4426 174.366 15.9282 175.205 15.9282C176.045 15.9282 176.724 16.4426 176.724 17.0788Z" fill="white"/>
<path d="M176.068 24.5602L176.508 23.4925H173.903L174.256 24.57C174.569 24.5407 174.881 24.5212 175.202 24.5212C175.498 24.5212 175.785 24.5358 176.068 24.5602Z" fill="white"/>
<path d="M175.978 28.7702H174.285V38.3091H175.978V28.7702Z" fill="#A0A0A0"/>
<path d="M176.148 25.0697H174.118V28.2778H176.148V25.0697Z" fill="#A0A0A0"/>
</svg>
