<svg width="388" height="45" viewBox="0 0 388 45" fill="none" xmlns="http://www.w3.org/2000/svg">
<path d="M1 1C103.575 20.5 267.595 34.4487 389 3.76423" stroke="#5D4719" stroke-width="0.75" stroke-miterlimit="10"/>
<path d="M380.291 17.7282C380.117 16.905 379.871 16.1229 379.562 15.3958C379.522 15.3958 373.222 15.1076 367.928 17.2C367.928 17.2 367.92 17.0628 367.92 16.8296C367.896 17.7214 367.967 18.6544 368.166 19.608C369.148 24.3484 373.673 32.6493 377.018 32.1279C380.37 31.6134 381.274 22.4687 380.291 17.7282Z" fill="#FF7676"/>
<path d="M372.453 10.0927C375.219 9.66051 378.088 11.9244 379.562 15.3957C379.562 15.3957 378.27 11.897 375.504 10.5523H375.512L375.211 9.07739L369.283 9.99667L369.592 11.4716L369.782 11.4442C368.126 13.1387 367.943 15.8622 367.936 16.8363C368.031 13.3102 369.782 10.5043 372.453 10.0927Z" fill="#5D3F03"/>
<path d="M379.562 15.3958C378.088 11.9245 375.219 9.6606 372.453 10.0928C369.782 10.5044 368.023 13.3103 367.928 16.8364C367.928 17.0697 367.936 17.2069 367.936 17.2069C373.23 15.1076 379.522 15.3958 379.562 15.3958Z" fill="#5D3F03"/>
<path d="M347.069 22.544C346.927 21.7208 346.697 20.9387 346.411 20.2047C346.372 20.2047 340.119 19.7793 334.793 21.7414C334.793 21.7414 334.793 21.6042 334.801 21.3778C334.746 22.2628 334.793 23.1957 334.968 24.1493C335.808 28.8829 340.056 37.2387 343.4 36.7996C346.728 36.3537 347.901 27.2776 347.069 22.544Z" fill="#E3D1AD"/>
<path d="M339.501 14.7714C342.267 14.4079 345.048 16.7198 346.412 20.2048C346.412 20.2048 345.231 16.6923 342.52 15.2928H342.528L342.267 13.8179L336.339 14.5999L336.6 16.0749L336.791 16.0475C335.095 17.6939 334.825 20.3969 334.793 21.371C335 17.8791 336.83 15.1282 339.501 14.7714Z" fill="#5D3F03"/>
<path d="M346.411 20.2047C345.048 16.7197 342.266 14.4078 339.5 14.7714C336.829 15.1282 334.999 17.8723 334.793 21.3779C334.785 21.6111 334.785 21.7414 334.785 21.7414C340.118 19.7794 346.371 20.2047 346.411 20.2047Z" fill="#5D3F03"/>
<path d="M313.348 24.4101C313.308 24.4101 307.095 23.8475 301.738 25.6792C301.738 25.6792 301.738 25.542 301.754 25.3156C301.675 26.1937 301.69 27.1199 301.833 28.0734C302.522 32.807 306.501 41.2108 309.845 40.8472C313.19 40.4836 314.624 31.4761 313.934 26.7494C313.816 25.9262 313.61 25.1441 313.348 24.4101Z" fill="#BA8D31"/>
<path d="M306.635 18.8464C309.393 18.5445 312.104 20.9113 313.348 24.41C313.348 24.41 312.278 20.8907 309.623 19.4364H309.631L309.417 17.9683L303.497 18.6131L303.711 20.0812L303.901 20.0606C302.166 21.6591 301.817 24.3483 301.754 25.3156C302.063 21.8306 303.965 19.1414 306.635 18.8464Z" fill="#5D4719"/>
<path d="M313.348 24.4101C312.096 20.9114 309.393 18.5446 306.635 18.8464C303.965 19.1346 302.063 21.8307 301.754 25.3157C301.738 25.5421 301.738 25.6793 301.738 25.6793C307.103 23.8476 313.316 24.4033 313.348 24.4101Z" fill="#5D4719"/>
<path d="M280.657 26.3721C280.618 26.3653 274.452 25.6724 269.055 27.3737C269.055 27.3737 269.063 27.2365 269.087 27.0101C268.984 27.8814 268.976 28.8075 269.087 29.7611C269.634 34.4878 273.335 42.9534 276.679 42.6652C280.015 42.3771 281.719 33.4451 281.18 28.7183C281.069 27.8951 280.895 27.113 280.657 26.3721Z" fill="#FF7676"/>
<path d="M274.135 20.685C276.893 20.4449 279.516 22.8666 280.649 26.3722C280.649 26.3722 279.69 22.846 277.091 21.3367H277.099L276.933 19.8687L271.02 20.3763L271.187 21.8444L271.377 21.8307C269.594 23.388 269.174 26.0497 269.079 27.0102C269.491 23.5526 271.472 20.9114 274.135 20.685Z" fill="#5D4719"/>
<path d="M280.657 26.372C279.516 22.8596 276.901 20.4448 274.143 20.6849C271.48 20.9113 269.499 23.5525 269.087 27.0169C269.063 27.2433 269.055 27.3805 269.055 27.3805C274.444 25.6723 280.618 26.3652 280.657 26.372Z" fill="#5D4719"/>
<path d="M248.014 27.9432C247.974 27.9363 241.848 27.0994 236.428 28.6772C236.428 28.6772 236.435 28.5469 236.467 28.3205C236.34 29.1849 236.301 30.1042 236.38 31.0577C236.776 35.7776 240.216 44.298 243.544 44.0922C246.881 43.8796 248.854 35.023 248.45 30.2963C248.386 29.473 248.228 28.6841 248.014 27.9432Z" fill="#E3D1AD"/>
<path d="M241.69 22.1257C244.448 21.9542 246.984 24.417 248.014 27.9432C248.014 27.9432 247.166 24.4033 244.622 22.846H244.63L244.503 21.3779L238.591 21.7484L238.718 23.2165L238.908 23.2028C237.086 24.712 236.586 27.3601 236.459 28.3136C236.983 24.8767 239.027 22.2903 241.69 22.1257Z" fill="#5D4719"/>
<path d="M248.014 27.9431C246.992 24.417 244.448 21.9473 241.69 22.1256C239.027 22.2972 236.975 24.8835 236.46 28.3205C236.428 28.5468 236.42 28.6772 236.42 28.6772C241.849 27.0993 247.975 27.9363 248.014 27.9431Z" fill="#5D4719"/>
<path d="M215.64 27.854C215.601 27.8471 209.522 26.873 204.062 28.3205C204.062 28.3205 204.078 28.1901 204.109 27.9637C203.951 28.8281 203.888 29.7405 203.935 30.6941C204.189 35.414 207.351 43.9893 210.679 43.8521C214.008 43.7217 216.251 34.9269 215.997 30.2139C215.965 29.3838 215.839 28.5949 215.64 27.854Z" fill="#BA8D31"/>
<path d="M209.522 21.9061C212.272 21.7964 214.729 24.3141 215.648 27.854C215.648 27.854 214.911 24.3072 212.423 22.6882H212.431L212.351 21.2201L206.447 21.4533L206.526 22.9214L206.717 22.9146C204.854 24.3758 204.268 27.0033 204.117 27.9569C204.735 24.5405 206.859 22.009 209.522 21.9061Z" fill="#5D4719"/>
<path d="M204.062 28.3135C209.522 26.866 215.601 27.847 215.64 27.847C214.729 24.3072 212.272 21.7894 209.514 21.8992C206.852 22.0021 204.728 24.5335 204.11 27.9499C204.078 28.1832 204.062 28.3135 204.062 28.3135Z" fill="#5D4719"/>
<path d="M183.322 27.4354C183.283 27.4285 177.244 26.3172 171.752 27.6275C171.752 27.6275 171.768 27.4971 171.815 27.2708C171.633 28.1283 171.538 29.0407 171.561 29.9874C171.664 34.7004 174.557 43.3306 177.886 43.2757C181.214 43.2208 183.718 34.5015 183.615 29.7885C183.592 28.9652 183.489 28.1763 183.322 27.4354Z" fill="#FF7676"/>
<path d="M177.394 21.3573C180.144 21.3093 182.514 23.8819 183.322 27.4355C183.322 27.4355 182.696 23.8819 180.263 22.208H180.271L180.239 20.7399L174.343 20.8359L174.375 22.304H174.565C172.663 23.7172 171.997 26.3241 171.815 27.2708C172.536 23.875 174.739 21.3985 177.394 21.3573Z" fill="#5D4719"/>
<path d="M171.752 27.6276C177.244 26.3105 183.283 27.4287 183.322 27.4355C182.522 23.8819 180.144 21.3093 177.394 21.3574C174.739 21.4054 172.536 23.8819 171.815 27.2709C171.768 27.4973 171.752 27.6276 171.752 27.6276Z" fill="#5D4719"/>
<path d="M151.155 26.0086C151.123 26.0017 145.124 24.7463 139.6 25.9331C139.6 25.9331 139.624 25.8028 139.671 25.5833C139.465 26.4339 139.338 27.3395 139.331 28.2931C139.291 32.9992 141.914 41.6843 145.235 41.7048C148.563 41.7254 151.329 33.0746 151.369 28.3685C151.377 27.5453 151.297 26.7564 151.155 26.0086Z" fill="#E3D1AD"/>
<path d="M145.425 19.8C148.175 19.8206 150.465 22.4412 151.154 26.0086C151.154 26.0086 150.639 22.4412 148.262 20.7193H148.27L148.286 19.2581L142.397 19.2169L142.381 20.6782H142.572C140.63 22.0502 139.885 24.6365 139.671 25.5764C140.495 22.208 142.77 19.7795 145.425 19.8Z" fill="#5D4719"/>
<path d="M151.155 26.0085C150.465 22.4411 148.175 19.8205 145.425 19.7999C142.77 19.7794 140.495 22.2079 139.671 25.5763C139.624 25.7958 139.6 25.9261 139.6 25.9261C145.124 24.7462 151.123 25.9947 151.155 26.0085Z" fill="#5D4719"/>
<path d="M119.993 24.2111C119.962 24.2043 114.002 22.8116 108.447 23.8681C108.447 23.8681 108.471 23.7378 108.526 23.5182C108.288 24.3621 108.138 25.2676 108.106 26.2212C107.916 30.9273 110.269 39.6673 113.59 39.7633C116.911 39.8594 119.946 31.284 120.136 26.5779C120.168 25.7547 120.112 24.9658 119.993 24.2111Z" fill="#BA8D31"/>
<path d="M114.454 17.879C117.196 17.9614 119.407 20.6369 119.986 24.2111C119.986 24.2111 119.581 20.6369 117.259 18.8601H117.267L117.323 17.3988L111.434 17.2205L111.379 18.6817L111.569 18.6886C109.58 20.0126 108.764 22.5783 108.518 23.5182C109.461 20.1635 111.807 17.7967 114.454 17.879Z" fill="#5D4719"/>
<path d="M119.993 24.2112C119.415 20.6302 117.204 17.9615 114.462 17.8792C111.807 17.8037 109.469 20.1705 108.534 23.5183C108.478 23.7378 108.455 23.8682 108.455 23.8682C114.002 22.8117 119.954 24.2043 119.993 24.2112Z" fill="#5D4719"/>
<path d="M87.7641 20.3827C87.7332 20.3739 81.9932 18.4829 76.3225 19.0599C76.3225 19.0599 76.3672 18.9319 76.4525 18.717C76.107 19.542 75.835 20.4266 75.6767 21.3665C74.8727 26.0305 76.0588 34.9265 79.3511 35.3098C82.6435 35.6931 86.7927 27.4174 87.5974 22.7465C87.7426 21.9366 87.791 21.1413 87.7641 20.3827Z" fill="#FF7676"/>
<path d="M83.0966 13.6104C85.8156 13.9237 87.6592 16.7702 87.7642 20.3827C87.7642 20.3827 87.8317 16.7947 85.7569 14.8216L85.7648 14.8221L86.0144 13.3717L80.184 12.6932L79.9345 14.1435L80.1155 14.1617C77.9648 15.3081 76.8156 17.7968 76.4461 18.7029C77.8304 15.4581 80.4724 13.303 83.0966 13.6104Z" fill="#5D4719"/>
<path d="M87.7639 20.3826C87.659 16.7701 85.8154 13.9237 83.0964 13.6103C80.4721 13.3029 77.8295 15.4649 76.4603 18.7175C76.375 18.9324 76.3303 19.0604 76.3303 19.0604C81.9938 18.4761 87.733 20.3738 87.7639 20.3826Z" fill="#5D4719"/>
<path d="M55.238 16.0232C55.2063 16.0163 49.3338 14.3424 43.715 15.145C43.715 15.145 43.7467 15.0147 43.818 14.7952C43.5327 15.6321 43.3267 16.5308 43.2236 17.4775C42.7481 22.1768 44.555 31.0197 47.8677 31.2735C51.1883 31.5273 54.7545 23.0892 55.23 18.3968C55.3172 17.5736 55.3172 16.7846 55.238 16.0232Z" fill="#E3D1AD"/>
<path d="M50.1027 9.43055C52.8447 9.64322 54.8814 12.4148 55.246 16.0233C55.246 16.0233 55.0637 12.4285 52.8526 10.5419H52.8606L53.0111 9.08068L47.1387 8.63477L46.9881 10.096L47.1704 10.1097C45.102 11.3377 44.1193 13.8691 43.8181 14.7953C44.9593 11.4886 47.4478 9.22475 50.1027 9.43055Z" fill="#5D4719"/>
<path d="M55.2379 16.0231C54.8813 12.4147 52.8366 9.64312 50.0946 9.43045C47.4476 9.22464 44.9592 11.4885 43.8101 14.7952C43.7387 15.0147 43.707 15.145 43.707 15.145C49.3338 14.3424 55.2062 16.0094 55.2379 16.0231Z" fill="#5D4719"/>
<path d="M23.4029 11.5245C23.3712 11.5107 17.5463 9.7065 11.8879 10.3788C11.8879 10.3788 11.9275 10.2485 12.0068 10.0289C11.6897 10.859 11.4599 11.7509 11.3331 12.6976C10.707 17.39 12.2445 26.2946 15.5572 26.6239C18.8698 26.9532 22.7055 18.5905 23.3316 13.8981C23.4346 13.0817 23.4505 12.286 23.4029 11.5245Z" fill="#BA8D31"/>
<path d="M18.4578 4.8014C21.1919 5.07581 23.1494 7.90224 23.403 11.5245C23.403 11.5245 23.3317 7.92282 21.1761 5.98137H21.184L21.3742 4.52013L15.5017 3.93701L15.3115 5.39138L15.4938 5.41197C13.3858 6.59879 12.3238 9.10964 11.991 10.0289C13.2431 6.74285 15.8108 4.54071 18.4578 4.8014Z" fill="#5D4719"/>
<path d="M23.4033 11.5245C23.1577 7.90226 21.2002 5.07583 18.4581 4.80142C15.8112 4.54073 13.2514 6.74287 11.9992 10.0289C11.92 10.2485 11.8804 10.3788 11.8804 10.3788C17.5388 9.7065 23.3637 11.5107 23.4033 11.5245Z" fill="#5D4719"/>
</svg>
