<svg width="390" height="172" viewBox="0 0 390 172" fill="none" xmlns="http://www.w3.org/2000/svg">
<path d="M344.651 75.8541C344.651 75.8541 213.59 37.7297 7.06415 49.0381C7.06415 49.0381 -68.2727 31.4804 -179 27V246.901L575.346 254.969V49.9804C526.391 51.9478 432.729 57.9326 344.651 75.8541Z" fill="white"/>
<path d="M76.7832 41.2491L78.2246 39.6123L71.4553 37.1655V34.4045H68.0321V35.9255L63.8367 34.4045L59.5898 35.8264L42.5766 26.7664L27.0563 35.0328L28.9095 36.4711L30.531 35.6114V46.027H27.9829V46.0435V47.9613H52.9493H53.8244H63.8367H74.7241H76.5001V46.027H74.7241V40.4885L76.7832 41.2491ZM42.2935 32.8339H44.507V34.7352H42.2935V32.8339ZM42.2935 36.8348V35.0658V34.9336H44.507V35.0658V36.8348V36.9671H42.2935V36.8348ZM42.2935 37.1489H44.507V39.0502H42.2935V37.1489ZM42.0104 47.0355H37.2745V44.9689H42.0104V47.0355ZM42.0104 42.7536V44.787V44.8201H37.2745V44.787V42.7536V42.7205H42.0104V42.7536ZM42.0104 42.5717H37.2745V40.5051H42.0104V42.5717ZM42.0104 39.0502H39.7969V37.1489H42.0104V39.0502ZM42.0104 35.0493V36.8183V36.9506H39.7969V36.8183V35.0493V34.917H42.0104V35.0493ZM42.0104 34.7352H39.7969V32.8339H42.0104V34.7352ZM47.0294 47.0355H42.2935V44.9689H47.0294V47.0355ZM47.0294 42.7536V44.787V44.8201H42.2935V44.787V42.7536V42.7205H47.0294V42.7536ZM47.0294 42.5717H42.2935V40.5051H47.0294V42.5717ZM63.3219 47.0355H58.586V44.9689H63.3219V47.0355ZM63.3219 42.7536V44.787V44.8201H58.586V44.787V42.7536V42.7205H63.3219V42.7536ZM63.3219 42.5717H58.586V40.5051H63.3219V42.5717ZM68.3409 47.0355H63.6051V44.9689H68.3409V47.0355ZM68.3409 42.7536V44.787V44.8201H63.6051V44.787V42.7536V42.7205H68.3409V42.7536ZM68.3409 42.5717H63.6051V40.5051H68.3409V42.5717Z" fill="white"/>
<path d="M373.163 53.4502V63.8658H370.615V63.8823V65.8001L377.307 74.4467L396.456 65.8001H406.469H417.356H419.132V63.8658H417.356V58.3273L419.492 59.1044L420.934 57.4676L414.164 55.0208V52.2599H410.741V53.7808L406.546 52.2599L402.299 53.6816L385.286 44.6217L369.765 52.8881L371.619 54.3264L373.163 53.4502ZM411.024 60.4105H406.288V58.3439H411.024V60.4105ZM406.726 62.8408H411.462V64.9074H406.726V62.8408ZM406.288 62.6589V60.5923H411.024V62.6589H406.288ZM401.707 62.8408H406.443V64.9074H401.707V62.8408ZM401.244 60.5923H405.98V62.6589H401.244V60.5923ZM401.244 58.3439H405.98V60.4105H401.244V58.3439ZM384.668 52.574H382.455V50.6727H384.668V52.574ZM384.668 54.6736H382.455V52.7724H384.668V54.6736ZM384.977 60.5923H389.713V62.6589H384.977V60.5923ZM384.977 58.3439H389.713V60.4105H384.977V58.3439ZM384.977 52.7558H387.19V54.6571H384.977V52.7558ZM384.977 50.6727H387.19V52.574H384.977V50.6727ZM379.932 60.5923H384.668V62.6589H379.932V60.5923ZM379.932 58.3439H384.668V60.4105H379.932V58.3439Z" fill="white"/>
<path d="M303.231 75.5048H318.597H333.963H354.065H356.072V72.7108H354.219V56.4591L359.83 56.4922L351.002 51.5489H333.963V43.1669L339.034 45.5476L342.045 42.8858L318.597 31.8916L311.081 35.413V29.7754H302.536V39.4139L295.124 42.8858L298.135 45.5476L303.205 43.1669V51.5489H286.167L277.338 56.4922L282.949 56.4591V72.7108H281.096V75.5048H283.104H303.231ZM338.416 61.7166H344.001V64.6594H338.416V61.7166ZM344.001 64.9735V67.9163H338.416V64.9735H344.001ZM344.516 61.7166H350.101V64.6594H344.516V61.7166ZM350.127 64.9735V67.9163H344.542V64.9735H350.127ZM299.216 67.9163H293.631V64.9735H299.216V67.9163ZM293.631 64.6428V61.7H299.216V64.6428H293.631ZM293.116 67.9163H287.531V64.9735H293.116V67.9163ZM287.531 64.6428V61.7H293.116V64.6428H287.531ZM314.093 44.4233H318.211V49.7964H314.093V44.4233ZM318.211 44.1753H314.093V43.7124C314.144 42.2575 315.972 41.0837 318.211 41.0176V44.1753ZM318.597 41.0011C320.836 41.0672 322.664 42.2575 322.715 43.6959V43.8282V44.1753H318.597V41.0011ZM322.715 49.7964H318.597V44.4233H322.715V49.7964Z" fill="white"/>
<path d="M186.146 40.9018V57.0378H182.183V57.0543V60.0302H220.868H222.232H237.727H254.585H257.339V57.0212H254.585V48.4408L257.88 49.6312L260.093 47.1016L249.592 43.2991V39.0171H244.264V41.3813L237.752 39.0171L231.163 41.216L204.781 27.1797L180.716 39.9926L183.598 42.2245L186.146 40.9018ZM196.648 48.4739H203.983V51.6646H196.648V48.4739ZM203.983 51.9622V55.1531H196.648V51.9622H203.983ZM204.447 48.4739H211.782V51.6646H204.447V48.4739ZM211.782 51.9622V55.1531H204.447V51.9622H211.782ZM207.87 42.7866H204.447V39.8272H207.87V42.7866ZM200.56 36.5868H203.983V39.5462H200.56V36.5868ZM203.983 39.8272V42.7866H200.56V39.8272H203.983ZM204.447 36.5868H207.87V39.5462H204.447V36.5868ZM244.805 55.1696H237.469V51.9788H244.805V55.1696ZM229.645 48.4739H236.98V51.6646H229.645V48.4739ZM237.443 48.4739H244.779V51.6646H237.443V48.4739ZM237.006 55.1696H229.67V51.9788H237.006V55.1696Z" fill="white"/>
<path d="M-24.7554 50.9207L-9.13213 51.582L25.0487 50.9207L25.4863 44.6052H27.4424V41.8773H25.6407V26.0224L31.0973 26.0555L22.4748 21.2445H5.84772V13.0608L10.7895 15.3754L13.7237 12.7798L-9.15787 2.05002L-16.4934 5.48885V-1.52588e-05H-24.8327V9.39054L-32.0652 12.7798L-29.131 15.3754L-24.1892 13.0608V21.2445H-40.8163L-49.4387 26.0555L-43.9822 26.0224V41.8773H-45.7838V44.6052H-43.8277L-24.7554 50.9207ZM10.1975 31.1476H15.6541V34.0077H10.1975V31.1476ZM15.6541 34.3219V37.182H10.1975V34.3219H15.6541ZM16.1689 31.1476H21.6255V34.0077H16.1689V31.1476ZM21.6255 34.3219V37.182H16.1689V34.3219H21.6255ZM-28.0242 37.182H-33.4808V34.3219H-28.0242V37.182ZM-33.5066 34.0077V31.1476H-28.05V34.0077H-33.5066ZM-33.9956 37.182H-39.4522V34.3219H-33.9956V37.182ZM-39.4522 34.0077V31.1476H-33.9956V34.0077H-39.4522ZM-13.5077 14.2677H-9.49246V19.5086H-13.5077V14.2677ZM-9.51821 14.0197H-13.5334V13.5568C-13.4819 12.1515 -11.706 10.9943 -9.51821 10.9281V14.0197ZM-9.13213 10.9281C-6.94435 10.9943 -5.16839 12.1515 -5.11691 13.5568V13.6726V14.0032H-9.13213V10.9281ZM-5.11691 19.5086H-9.13213V14.2677H-5.11691V19.5086Z" fill="white"/>
<path d="M163.033 32.2057L165.736 30.106L143.112 18.0702L118.3 31.2633L112.097 29.1967L105.971 31.4121V29.1967H100.977V33.2307L91.0939 36.8018L93.1787 39.1825L96.2931 38.0583V46.1262H93.6935V48.9533H96.2931H112.148H126.716L130.011 57.5834L164.372 51.0199V46.1427V46.1262H160.64V30.9492L163.033 32.2057ZM150.782 41.0837H143.884V38.0748H150.782V41.0837ZM150.782 41.3483V44.3572H143.884V41.3483H150.782ZM143.446 41.0837H136.522V38.0748H143.446V41.0837ZM143.446 41.3483V44.3572H136.522V41.3483H143.446ZM140.229 29.9407H143.446V32.7182H140.229V29.9407ZM147.101 29.6762H143.884V26.8987H147.101V29.6762ZM147.101 29.9407V32.7182H143.884V29.9407H147.101ZM143.446 29.6762H140.229V26.8987H143.446V29.6762ZM105.482 41.3483H112.38V44.3572H105.482V41.3483ZM119.741 41.0837H112.843V38.0748H119.741V41.0837ZM112.405 41.0837H105.507V38.0748H112.405V41.0837ZM112.817 41.3483H119.715V44.3572H112.817V41.3483Z" fill="white"/>
<path d="M355.815 73.5374L359.624 63.0887C361.606 62.9895 364.592 62.7416 364.592 62.7416C364.592 62.7416 361.786 62.5432 359.882 62.4274L361.246 58.691C362.327 58.5588 363.382 58.3935 363.382 58.3935C363.382 58.3935 362.43 58.2612 361.452 58.1455L361.581 57.7652C362.687 57.633 363.82 57.4676 363.82 57.4676C363.82 57.4676 362.816 57.3354 361.786 57.2031L362.996 53.8966C364.154 53.7312 365.441 53.4833 365.441 53.4833C365.441 53.4833 364.335 53.3014 363.254 53.1361L365.673 46.5065L369.096 55.897C367.989 56.0623 366.857 56.2773 366.857 56.2773C366.857 56.2773 368.221 56.5087 369.379 56.6741L372.365 64.8908C371.387 65.0396 370.46 65.2215 370.46 65.2215C370.46 65.2215 371.541 65.4033 372.597 65.5686L373.987 69.4042C372.236 69.553 369.843 69.8341 369.843 69.8341C369.843 69.8341 372.622 70.1317 374.295 70.2639L375.479 73.5209H365.647H355.815V73.5374Z" fill="white"/>
<path d="M256.799 63.5186L261.097 50.9372C263.336 50.8215 266.734 50.5239 266.734 50.5239C266.734 50.5239 263.542 50.2759 261.38 50.1437L262.925 45.6468C264.134 45.4814 265.344 45.2995 265.344 45.2995C265.344 45.2995 264.263 45.1508 263.156 45.002L263.311 44.5556C264.572 44.3903 265.859 44.1919 265.859 44.1919C265.859 44.1919 264.701 44.0266 263.542 43.8778L264.906 39.8934C266.219 39.695 267.686 39.3974 267.686 39.3974C267.686 39.3974 266.425 39.1825 265.215 38.9841L267.944 30.9988L271.83 42.3237C270.569 42.5221 269.308 42.7866 269.308 42.7866C269.308 42.7866 270.852 43.0511 272.165 43.2661L275.562 53.1526C274.455 53.3344 273.426 53.5494 273.426 53.5494C273.426 53.5494 274.661 53.7643 275.845 53.9627L277.441 58.5918C275.459 58.7572 272.757 59.1209 272.757 59.1209C272.757 59.1209 275.897 59.4846 277.801 59.65L279.14 63.5847L271.83 70.7103L256.799 63.5186Z" fill="white"/>
<path d="M161.901 52.6566L165.298 43.7786C167.074 43.6959 169.751 43.481 169.751 43.481C169.751 43.481 167.229 43.3157 165.53 43.2165L166.74 40.0422C167.692 39.9264 168.644 39.7942 168.644 39.7942C168.644 39.7942 167.795 39.695 166.92 39.5793L167.048 39.2651C168.052 39.1494 169.056 39.0006 169.056 39.0006C169.056 39.0006 168.155 38.8849 167.229 38.7857L168.31 35.9751C169.365 35.8263 170.497 35.628 170.497 35.628C170.497 35.628 169.494 35.4626 168.541 35.3303L170.703 29.6927L173.766 37.678C172.788 37.8268 171.759 38.0086 171.759 38.0086C171.759 38.0086 172.968 38.207 173.998 38.3393L176.675 45.3161C175.8 45.4484 174.976 45.5972 174.976 45.5972C174.976 45.5972 175.928 45.7459 176.881 45.8782L178.142 49.1352C176.572 49.2509 174.435 49.4989 174.435 49.4989C174.435 49.4989 176.906 49.7469 178.425 49.8791L179.48 52.6566H170.678H161.901Z" fill="white"/>
<path d="M168.155 56.2442L171.553 47.3661C173.329 47.2835 176.005 47.0686 176.005 47.0686C176.005 47.0686 173.483 46.9032 171.784 46.804L172.994 43.6298C173.946 43.5141 174.899 43.3818 174.899 43.3818C174.899 43.3818 174.049 43.2826 173.174 43.1669L173.303 42.8527C174.307 42.737 175.311 42.5882 175.311 42.5882C175.311 42.5882 174.41 42.4725 173.483 42.3733L174.564 39.5627C175.619 39.4139 176.752 39.2155 176.752 39.2155C176.752 39.2155 175.748 39.0502 174.796 38.918L176.958 33.2803L180.021 41.2656C179.043 41.4144 178.013 41.5962 178.013 41.5962C178.013 41.5962 179.223 41.7947 180.252 41.9269L182.929 48.9037C182.054 49.036 181.23 49.1847 181.23 49.1847C181.23 49.1847 182.208 49.3336 183.135 49.4658L184.396 52.7228C182.826 52.8385 180.69 53.0865 180.69 53.0865C180.69 53.0865 183.161 53.3344 184.679 53.4667L185.735 56.2442H176.932H168.155Z" fill="white"/>
<path d="M80.7213 46.1427L83.0892 40.2736C84.3246 40.224 86.1778 40.0752 86.1778 40.0752C86.1778 40.0752 84.4276 39.9595 83.2436 39.8934L84.093 37.7937C84.7622 37.7276 85.4314 37.6284 85.4314 37.6284C85.4314 37.6284 84.8394 37.5622 84.2217 37.4961L84.2989 37.2812C84.9939 37.1986 85.6888 37.1159 85.6888 37.1159C85.6888 37.1159 85.0711 37.0332 84.4276 36.9671L85.174 35.0989C85.8947 34.9997 86.6926 34.8674 86.6926 34.8674C86.6926 34.8674 85.9976 34.7682 85.3284 34.669L86.8213 30.9326L88.9319 36.2231C88.2369 36.3223 87.542 36.438 87.542 36.438C87.542 36.438 88.3913 36.5703 89.112 36.653L90.9652 41.2656C90.3475 41.3482 89.7812 41.4475 89.7812 41.4475C89.7812 41.4475 90.4504 41.5466 91.1196 41.6458L91.9948 43.7951C90.9137 43.8777 89.4209 44.0431 89.4209 44.0431C89.4209 44.0431 91.1454 44.2084 92.2006 44.2911L92.9471 46.1262H86.847H80.7213V46.1427Z" fill="white"/>
<path d="M77.298 48.7549L79.6659 42.8858C80.9014 42.8362 82.7546 42.6874 82.7546 42.6874C82.7546 42.6874 81.0043 42.5717 79.8204 42.5055L80.6698 40.4059C81.339 40.3398 82.0082 40.2406 82.0082 40.2406C82.0082 40.2406 81.4162 40.1744 80.7985 40.1083L80.8757 39.8934C81.5706 39.8107 82.2655 39.728 82.2655 39.728C82.2655 39.728 81.6478 39.6454 81.0044 39.5793L81.7508 37.7111C82.4714 37.6119 83.2693 37.4796 83.2693 37.4796C83.2693 37.4796 82.5744 37.3804 81.9052 37.2812L83.398 33.5448L85.5086 38.8188C84.8137 38.918 84.1187 39.0337 84.1187 39.0337C84.1187 39.0337 84.9681 39.1659 85.6888 39.2486L87.5419 43.8612C86.9242 43.9439 86.358 44.0431 86.358 44.0431C86.358 44.0431 87.0272 44.1423 87.6964 44.2415L88.5715 46.3907C87.4905 46.4734 85.9977 46.6387 85.9977 46.6387C85.9977 46.6387 87.7221 46.8041 88.7774 46.8867L89.5238 48.7218H83.4238H77.298V48.7549Z" fill="white"/>
</svg>
