<svg width="390" height="585" viewBox="0 0 390 585" fill="none" xmlns="http://www.w3.org/2000/svg">
<path d="M366.525 190.39C363.315 190.986 360.919 189.061 361.025 185.973C361.284 178.726 362.022 166.581 364.068 164.9C367.764 161.869 370.107 169.756 370.107 169.756C370.107 169.756 373.454 165.432 376.375 166.904C379.296 168.377 376.253 174.338 376.253 174.338C376.253 174.338 382.003 170.546 384.004 173.031C386.012 175.516 382.026 179.329 382.026 179.329C382.026 179.329 390.652 180.256 388.066 184.185C386.636 186.368 374.055 188.997 366.525 190.39Z" fill="#27AE60"/>
<path d="M78.2844 248.222C74.6334 249.012 70.99 246.857 70.1533 243.41L45.7067 142.915C42.5957 130.11 51.0919 117.304 64.6539 114.359C78.2159 111.421 91.7779 119.444 94.8965 132.25C95.7332 135.697 93.4513 139.138 89.8003 139.928C86.1493 140.718 82.5059 138.563 81.6692 135.116C80.2316 129.197 73.9564 125.491 67.6888 126.849C61.4213 128.206 57.4964 134.132 58.934 140.05L83.3806 240.544C84.2173 243.991 81.9354 247.432 78.2844 248.222Z" fill="#C0392B"/>
<path d="M89.8003 139.928C93.4513 139.138 95.7332 135.697 94.8965 132.25C94.4782 130.519 93.8621 128.881 93.0862 127.344L85.1224 139.346C86.5068 140.035 88.1497 140.287 89.8003 139.928Z" fill="white"/>
<path d="M78.1855 219.191L67.9931 234.547L70.1457 243.41C70.4119 244.516 70.9748 245.485 71.7278 246.268L81.2737 231.882L78.1855 219.191Z" fill="white"/>
<path d="M67.4683 113.914C66.5327 114.014 65.5971 114.158 64.6539 114.366C51.0919 117.304 42.5957 130.117 45.7067 142.923L46.3836 145.695L67.4683 113.914Z" fill="white"/>
<path d="M78.2692 114.984L70.5716 126.59C74.0249 126.662 77.2347 128.192 79.3721 130.677L86.7654 119.537C84.2705 117.519 81.3802 115.968 78.2692 114.984Z" fill="white"/>
<path d="M75.0974 206.5L72.0092 193.802L61.8244 209.165L64.9049 221.856L75.0974 206.5Z" fill="white"/>
<path d="M68.9211 181.111L65.8329 168.412L55.6481 183.775L58.7363 196.466L68.9211 181.111Z" fill="white"/>
<path d="M62.7448 155.721L59.6566 143.023L49.4718 158.386L52.56 171.077L62.7448 155.721Z" fill="white"/>
<path d="M145.159 212.483L95.5278 207.326L100.845 163.622L150.476 168.779L145.159 212.483Z" fill="#2980B9"/>
<path opacity="0.1" d="M150.464 168.778L100.836 163.625L100.304 168.194L149.932 173.347L150.464 168.778Z" fill="black"/>
<path d="M153.858 158.846L99.8065 153.234L98.6234 163.393L152.675 169.005L153.858 158.846Z" fill="#3498DB"/>
<path d="M125.504 210.443L115.182 209.373L121.678 155.506L132 156.576L125.504 210.443Z" fill="#FEDB03"/>
<path d="M117.069 144.503L127.71 148.546L126.835 156.045L111.029 154.407L111.836 147.462C112.117 145.077 114.718 143.605 117.069 144.503Z" fill="#FEDB03"/>
<path d="M139.028 146.78L127.71 148.539L126.835 156.037L142.641 157.675L143.447 150.73C143.729 148.36 141.531 146.392 139.028 146.78Z" fill="#FEDB03"/>
<path d="M127.71 148.539C124.858 148.245 122.294 150.184 121.982 152.877L121.678 155.506L132 156.576L132.304 153.947C132.616 151.254 130.562 148.834 127.71 148.539Z" fill="#F1C40F"/>
<path d="M376.466 239.158L326.835 234.008L332.152 190.304L381.783 195.454L376.466 239.158Z" fill="#2980B9"/>
<path opacity="0.1" d="M381.769 195.457L332.141 190.304L331.609 194.873L381.237 200.026L381.769 195.457Z" fill="black"/>
<path d="M385.168 185.534L331.117 179.922L329.934 190.081L383.985 195.693L385.168 185.534Z" fill="#3498DB"/>
<path d="M356.811 237.118L346.497 236.048L352.993 182.181L363.307 183.251L356.811 237.118Z" fill="#FEDB03"/>
<path d="M348.384 171.178L359.025 175.221L358.15 182.72L342.344 181.082L343.151 174.137C343.432 171.752 346.033 170.287 348.384 171.178Z" fill="#FEDB03"/>
<path d="M370.343 173.454L359.025 175.214L358.15 182.712L373.956 184.35L374.762 177.405C375.044 175.035 372.838 173.067 370.343 173.454Z" fill="#FEDB03"/>
<path d="M359.025 175.214C356.172 174.92 353.609 176.859 353.297 179.552L352.993 182.181L363.315 183.251L363.619 180.622C363.931 177.936 361.87 175.516 359.025 175.214Z" fill="#F1C40F"/>
<path d="M326.048 136.541C330.158 118.169 317.717 100.128 298.26 96.247C278.803 92.3655 259.697 104.113 255.587 122.485C251.476 140.858 263.917 158.898 283.374 162.78C302.831 166.661 321.937 154.914 326.048 136.541Z" fill="white"/>
<path d="M296.273 156.569C276.39 156.569 260.265 141.35 260.265 122.568C260.265 116.564 261.915 110.933 264.813 106.035C258.629 112.14 254.826 120.406 254.826 129.521C254.826 148.295 270.944 163.521 290.834 163.521C304.366 163.521 316.141 156.476 322.294 146.054C315.737 152.533 306.503 156.569 296.273 156.569Z" fill="#E9E5F6"/>
<path d="M332.203 238.358C355.051 216.784 355.051 181.804 332.203 160.23C309.355 138.655 272.31 138.655 249.462 160.23C226.613 181.804 226.613 216.784 249.462 238.358C272.31 259.933 309.355 259.933 332.203 238.358Z" fill="white"/>
<path d="M335.575 163.708C330.646 158.192 324.599 153.603 317.761 150.249H263.908C257.07 153.603 251.023 158.192 246.094 163.708H335.575Z" fill="#E9E5F6"/>
<path d="M309.051 228.657C276.74 228.657 250.536 203.922 250.536 173.411C250.536 167.709 251.449 162.214 253.145 157.043C240.412 167.177 232.312 182.339 232.312 199.296C232.312 229.806 258.508 254.549 290.827 254.549C317.107 254.549 339.34 238.188 346.725 215.672C336.548 223.766 323.405 228.657 309.051 228.657Z" fill="#E9E5F6"/>
<path d="M276.322 144.359H270.442V148.424H280.437V148.245C280.429 146.097 278.588 144.359 276.322 144.359Z" fill="#902B20"/>
<path d="M329.839 159.377H253.32C251.974 159.377 250.886 158.35 250.886 157.079V148.223C250.886 146.952 251.974 145.925 253.32 145.925H329.839C331.186 145.925 332.273 146.952 332.273 148.223V157.079C332.273 158.35 331.186 159.377 329.839 159.377Z" fill="#C0392B"/>
<path opacity="0.1" d="M262.463 145.918C261.946 146.564 261.626 147.368 261.626 148.245V159.377H275.127V148.826V148.238C275.127 147.361 275.447 146.564 275.964 145.91H262.463V145.918Z" fill="black"/>
<path d="M272.268 144.359H269.453H262.881C260.607 144.359 258.766 146.097 258.766 148.245V196.287H272.268V148.826V148.238C272.268 146.09 274.108 144.352 276.383 144.352H272.268V144.359Z" fill="#F24836"/>
<path d="M286.332 120.758C288.818 120.758 290.834 118.855 290.834 116.506C290.834 114.158 288.818 112.254 286.332 112.254C283.845 112.254 281.829 114.158 281.829 116.506C281.829 118.855 283.845 120.758 286.332 120.758Z" fill="#34495E"/>
<path d="M315.137 174.575C317.623 174.575 319.639 172.671 319.639 170.323C319.639 167.975 317.623 166.071 315.137 166.071C312.65 166.071 310.634 167.975 310.634 170.323C310.634 172.671 312.65 174.575 315.137 174.575Z" fill="#34495E"/>
<path d="M319.632 191.575C322.119 191.575 324.135 189.672 324.135 187.323C324.135 184.975 322.119 183.071 319.632 183.071C317.145 183.071 315.129 184.975 315.129 187.323C315.129 189.672 317.145 191.575 319.632 191.575Z" fill="#34495E"/>
<path d="M286.004 114.905C286.004 115.623 285.388 116.198 284.635 116.198C283.875 116.198 283.266 115.616 283.266 114.905C283.266 114.186 283.882 113.612 284.635 113.612C285.396 113.612 286.004 114.194 286.004 114.905Z" fill="white"/>
<path d="M312.117 120.758C314.604 120.758 316.62 118.855 316.62 116.506C316.62 114.158 314.604 112.254 312.117 112.254C309.63 112.254 307.614 114.158 307.614 116.506C307.614 118.855 309.63 120.758 312.117 120.758Z" fill="#34495E"/>
<path d="M311.79 114.905C311.79 115.623 311.174 116.198 310.421 116.198C309.668 116.198 309.051 115.616 309.051 114.905C309.051 114.186 309.668 113.612 310.421 113.612C311.174 113.612 311.79 114.194 311.79 114.905Z" fill="white"/>
<path d="M304.29 119.379L328.919 116.212C330.372 116.025 330.965 117.921 329.634 118.51L307.135 128.486C304.313 129.736 300.981 128.321 300.099 125.499C299.217 122.676 301.202 119.781 304.29 119.379Z" fill="#E67E22"/>
<path d="M292.683 144.359C285.084 144.359 278.915 138.541 278.915 131.359V131.072H306.443V131.359C306.443 138.541 300.281 144.359 292.683 144.359Z" fill="#902B20"/>
<path d="M310.39 103.262L263.148 108.146C259.299 108.541 255.838 105.92 255.42 102.293C255.001 98.6584 257.778 95.3905 261.619 94.9955L308.861 90.1116C312.71 89.7165 316.171 92.3381 316.589 95.9651C317.015 99.5993 314.239 102.867 310.39 103.262Z" fill="white"/>
<path d="M316.589 95.9507C315.471 97.1573 313.904 97.9905 312.086 98.1772L264.844 103.061C261.003 103.456 257.549 100.842 257.116 97.222C255.868 98.5651 255.191 100.375 255.42 102.293C255.838 105.927 259.299 108.548 263.148 108.146L310.39 103.262C314.239 102.867 317.015 99.5993 316.589 95.9651C316.589 95.9651 316.589 95.9579 316.589 95.9507Z" fill="#E9E5F6"/>
<path d="M306.443 90.3629L295.817 79.7404C287.921 71.8471 276.535 67.9471 265.11 69.2256L248.445 71.093L251.487 73.1686C257.321 77.1548 261.139 83.2453 262.022 89.9895L262.661 94.8878L306.443 90.3629Z" fill="#C0392B"/>
<path d="M252.41 75.5453C254.755 72.745 254.252 68.68 251.286 66.4659C248.32 64.2518 244.015 64.727 241.671 67.5273C239.326 70.3276 239.829 74.3925 242.795 76.6066C245.76 78.8207 250.065 78.3455 252.41 75.5453Z" fill="white"/>
<path d="M208.694 200.704H174.937V240.731H208.694V200.704Z" fill="#FFA163"/>
<path d="M121.328 220.692L191.816 84.9834L262.296 220.692H121.328Z" fill="#108F45"/>
<path d="M263.277 212.67H121.199C118.826 212.67 116.902 214.487 116.902 216.727C116.902 218.968 118.826 220.785 121.199 220.785H263.277C265.65 220.785 267.574 218.968 267.574 216.727C267.574 214.479 265.65 212.67 263.277 212.67Z" fill="white"/>
<path opacity="0.1" d="M144.467 176.148H239.157L235.689 169.461H147.935L144.467 176.148Z" fill="black"/>
<path opacity="0.1" d="M208.694 220.714H174.937V227.4H208.694V220.714Z" fill="black"/>
<path d="M136.708 169.461L191.816 63.3649L246.916 169.461H136.708Z" fill="#27AE60"/>
<path d="M247.973 161.403H136.495C134.122 161.403 132.198 163.22 132.198 165.461C132.198 167.701 134.122 169.519 136.495 169.519H247.973C250.346 169.519 252.271 167.701 252.271 165.461C252.271 163.22 250.346 161.403 247.973 161.403Z" fill="white"/>
<path d="M148.802 129.111L191.816 46.2998L234.822 129.111H148.802Z" fill="#108F45"/>
<path d="M236.792 121.089H146.832C144.459 121.089 142.535 122.906 142.535 125.147C142.535 127.387 144.459 129.205 146.832 129.205H236.799C239.173 129.205 241.097 127.387 241.097 125.147C241.089 122.906 239.165 121.089 236.792 121.089Z" fill="white"/>
<path opacity="0.1" d="M165.087 97.7607H218.537L215.068 91.074H168.556L165.087 97.7607Z" fill="black"/>
<path opacity="0.1" d="M154.195 135.798H229.437L225.96 129.111H157.664L154.195 135.798Z" fill="black"/>
<path d="M159.307 91.074L189.465 32.9983C190.424 31.1596 193.2 31.1596 194.159 32.9983L224.317 91.074H159.307Z" fill="#27AE60"/>
<path d="M193.375 1.46104L196.942 8.29136C197.193 8.77975 197.688 9.11732 198.258 9.19633L206.245 10.2952C207.675 10.4891 208.245 12.1554 207.211 13.1035L201.43 18.4183C201.019 18.799 200.829 19.3448 200.928 19.8763L202.29 27.389C202.533 28.732 201.035 29.7591 199.757 29.1271L192.614 25.579C192.105 25.3277 191.496 25.3277 190.987 25.579L183.844 29.1271C182.567 29.7591 181.068 28.7392 181.312 27.389L182.673 19.8763C182.772 19.3448 182.582 18.799 182.171 18.4183L176.39 13.1035C175.356 12.1482 175.926 10.4891 177.356 10.2952L185.343 9.19633C185.913 9.11732 186.4 8.77975 186.659 8.29136L190.226 1.46104C190.888 0.232876 192.736 0.232876 193.375 1.46104Z" fill="#FEDB03"/>
<path d="M204.564 53.0368C204.564 53.0368 193.695 64.6289 170.777 68.9814" stroke="#34495E" stroke-width="3.3453" stroke-miterlimit="10" stroke-linecap="round"/>
<path d="M217.381 95.527C217.381 95.527 197.155 116.657 153.145 120.758" stroke="#34495E" stroke-width="3.3453" stroke-miterlimit="10" stroke-linecap="round"/>
<path d="M230.806 138.441C230.806 138.441 211.227 175.968 142.504 179.911" stroke="#34495E" stroke-width="3.3453" stroke-miterlimit="10" stroke-linecap="round"/>
<path d="M242.398 182.382C242.398 182.382 202.442 219.335 135.157 220.369" stroke="#34495E" stroke-width="3.3453" stroke-miterlimit="10" stroke-linecap="round"/>
<path d="M174.299 73.3913C175.588 73.3913 176.634 72.4041 176.634 71.1863C176.634 69.9686 175.588 68.9814 174.299 68.9814C173.009 68.9814 171.963 69.9686 171.963 71.1863C171.963 72.4041 173.009 73.3913 174.299 73.3913Z" fill="#FEDB03"/>
<path d="M179.752 120.758C181.042 120.758 182.087 119.771 182.087 118.553C182.087 117.336 181.042 116.348 179.752 116.348C178.463 116.348 177.417 117.336 177.417 118.553C177.417 119.771 178.463 120.758 179.752 120.758Z" fill="white"/>
<path d="M149.167 182.382C149.167 183.596 148.125 184.587 146.832 184.587C145.547 184.587 144.497 183.603 144.497 182.382C144.497 181.168 145.539 180.177 146.832 180.177C148.118 180.177 149.167 181.161 149.167 182.382Z" fill="white"/>
<path d="M204.929 167.263C204.929 168.477 203.887 169.468 202.594 169.468C201.301 169.468 200.259 168.484 200.259 167.263C200.259 166.05 201.301 165.058 202.594 165.058C203.887 165.058 204.929 166.042 204.929 167.263Z" fill="white"/>
<path d="M236.602 191.949C236.602 193.163 235.56 194.154 234.266 194.154C232.981 194.154 231.931 193.17 231.931 191.949C231.931 190.728 232.973 189.744 234.266 189.744C235.56 189.751 236.602 190.735 236.602 191.949Z" fill="white"/>
<path d="M180.939 218.753C182.228 218.753 183.274 217.766 183.274 216.548C183.274 215.33 182.228 214.343 180.939 214.343C179.649 214.343 178.604 215.33 178.604 216.548C178.604 217.766 179.649 218.753 180.939 218.753Z" fill="white"/>
<path d="M186.75 68.3134C186.75 69.5272 185.708 70.5184 184.415 70.5184C183.129 70.5184 182.08 69.5344 182.08 68.3134C182.08 67.0996 183.122 66.1085 184.415 66.1085C185.708 66.1157 186.75 67.0996 186.75 68.3134Z" fill="#C0392B"/>
<path d="M192.036 116.413C193.326 116.413 194.372 115.426 194.372 114.208C194.372 112.99 193.326 112.003 192.036 112.003C190.747 112.003 189.701 112.99 189.701 114.208C189.701 115.426 190.747 116.413 192.036 116.413Z" fill="#E67E22"/>
<path d="M161.916 182.978C163.205 182.978 164.251 181.991 164.251 180.773C164.251 179.555 163.205 178.568 161.916 178.568C160.626 178.568 159.58 179.555 159.58 180.773C159.58 181.991 160.626 182.978 161.916 182.978Z" fill="#E67E22"/>
<path d="M215.593 161.381C216.883 161.381 217.928 160.394 217.928 159.176C217.928 157.958 216.883 156.971 215.593 156.971C214.303 156.971 213.258 157.958 213.258 159.176C213.258 160.394 214.303 161.381 215.593 161.381Z" fill="#E67E22"/>
<path d="M196.996 212.145C196.996 213.359 195.954 214.35 194.661 214.35C193.375 214.35 192.325 213.366 192.325 212.145C192.325 210.924 193.367 209.94 194.661 209.94C195.946 209.94 196.996 210.924 196.996 212.145Z" fill="#E67E22"/>
<path d="M194.372 66.1157C195.661 66.1157 196.707 65.1285 196.707 63.9107C196.707 62.693 195.661 61.7058 194.372 61.7058C193.082 61.7058 192.036 62.693 192.036 63.9107C192.036 65.1285 193.082 66.1157 194.372 66.1157Z" fill="white"/>
<path d="M205.887 109.03C205.887 110.243 204.845 111.235 203.552 111.235C202.267 111.235 201.217 110.251 201.217 109.03C201.217 107.816 202.259 106.825 203.552 106.825C204.845 106.825 205.887 107.809 205.887 109.03Z" fill="#C0392B"/>
<path d="M176.018 179.918C177.307 179.918 178.353 178.931 178.353 177.713C178.353 176.496 177.307 175.509 176.018 175.509C174.728 175.509 173.682 176.496 173.682 177.713C173.682 178.931 174.728 179.918 176.018 179.918Z" fill="#C0392B"/>
<path d="M208.694 208.87C209.984 208.87 211.029 207.883 211.029 206.665C211.029 205.447 209.984 204.46 208.694 204.46C207.404 204.46 206.359 205.447 206.359 206.665C206.359 207.883 207.404 208.87 208.694 208.87Z" fill="#C0392B"/>
<path d="M229.018 148.51C229.018 149.724 227.976 150.715 226.683 150.715C225.398 150.715 224.348 149.731 224.348 148.51C224.348 147.297 225.39 146.306 226.683 146.306C227.976 146.306 229.018 147.297 229.018 148.51Z" fill="#C0392B"/>
<path d="M158.074 123.286C158.074 124.5 157.032 125.491 155.739 125.491C154.454 125.491 153.404 124.507 153.404 123.286C153.404 122.073 154.446 121.081 155.739 121.081C157.025 121.089 158.074 122.073 158.074 123.286Z" fill="#C0392B"/>
<path d="M204.883 58.5743C204.883 59.7881 203.841 60.7793 202.548 60.7793C201.263 60.7793 200.213 59.7953 200.213 58.5743C200.213 57.3605 201.255 56.3694 202.548 56.3694C203.841 56.3694 204.883 57.3533 204.883 58.5743Z" fill="#E67E22"/>
<path d="M215.928 102.3C215.928 103.514 214.886 104.505 213.593 104.505C212.307 104.505 211.257 103.521 211.257 102.3C211.257 101.086 212.3 100.095 213.593 100.095C214.886 100.095 215.928 101.086 215.928 102.3Z" fill="#FEDB03"/>
<path d="M191.108 173.347C191.108 174.56 190.066 175.552 188.773 175.552C187.488 175.552 186.438 174.568 186.438 173.347C186.438 172.133 187.48 171.142 188.773 171.142C190.066 171.149 191.108 172.133 191.108 173.347Z" fill="#FEDB03"/>
<path d="M222.02 202.119C223.31 202.119 224.356 201.132 224.356 199.914C224.356 198.696 223.31 197.709 222.02 197.709C220.731 197.709 219.685 198.696 219.685 199.914C219.685 201.132 220.731 202.119 222.02 202.119Z" fill="#FEDB03"/>
<path d="M164.251 222.344C165.54 222.344 166.586 221.357 166.586 220.139C166.586 218.921 165.54 217.934 164.251 217.934C162.961 217.934 161.915 218.921 161.915 220.139C161.915 221.357 162.961 222.344 164.251 222.344Z" fill="#FEDB03"/>
<path d="M169.621 121.599C169.621 122.812 168.579 123.804 167.286 123.804C165.992 123.804 164.95 122.82 164.95 121.599C164.95 120.385 165.992 119.394 167.286 119.394C168.579 119.394 169.621 120.378 169.621 121.599Z" fill="#FEDB03"/>
<path d="M212.768 77.6737C213.652 75.4322 212.444 72.9385 210.071 72.1037C207.697 71.2689 205.056 72.4093 204.172 74.6507C203.288 76.8922 204.495 79.3859 206.869 80.2207C209.243 81.0555 211.884 79.9151 212.768 77.6737Z" fill="#F24836"/>
<path d="M206.542 72.2134C206.253 72.3355 205.986 72.4863 205.743 72.6587L203.993 77.1332C204.062 77.4133 204.161 77.6935 204.298 77.9664C204.397 78.1675 204.511 78.347 204.632 78.5266L207.18 71.9979C206.96 72.0482 206.747 72.12 206.542 72.2134Z" fill="#C0392B"/>
<path d="M212.627 74.3322C212.543 74.1598 212.444 74.0018 212.345 73.8438L209.835 80.2719C210.018 80.2144 210.2 80.157 210.383 80.078C210.717 79.9343 211.022 79.7476 211.295 79.5465L212.954 75.2946C212.885 74.9714 212.779 74.6482 212.627 74.3322Z" fill="#C0392B"/>
<path d="M211.524 72.9244C211.235 72.6802 210.923 72.4791 210.58 72.3139L207.431 80.3724C207.804 80.4514 208.184 80.4945 208.565 80.4802L211.524 72.9244Z" fill="#C0392B"/>
<path d="M209.554 71.9405C209.189 71.8543 208.808 71.8112 208.42 71.8184L205.454 79.4172C205.743 79.6542 206.062 79.8553 206.397 80.0133L209.554 71.9405Z" fill="#C0392B"/>
<path d="M205.781 74.009C206.268 74.1741 206.45 74.8421 206.199 75.4885C205.948 76.1349 205.347 76.5299 204.861 76.3575C204.374 76.1924 204.191 75.5244 204.442 74.878C204.693 74.2316 205.294 73.8438 205.781 74.009Z" fill="white"/>
<path d="M212.094 76.5443C212.414 76.652 212.535 77.0901 212.368 77.5139C212.201 77.9377 211.813 78.1962 211.493 78.0885C211.174 77.9808 211.052 77.5426 211.219 77.1189C211.387 76.6879 211.782 76.4294 212.094 76.5443Z" fill="white"/>
<path d="M205.591 77.2194C205.69 77.4133 205.598 77.6504 205.385 77.7366C205.18 77.8299 204.929 77.7437 204.838 77.5426C204.739 77.3487 204.83 77.1117 205.043 77.0255C205.249 76.9393 205.492 77.0255 205.591 77.2194Z" fill="white"/>
<path d="M208.55 71.8112L204.914 73.3913L203.94 71.3946C203.811 71.1289 203.933 70.8129 204.214 70.6836L206.823 69.5488C207.104 69.4267 207.439 69.5416 207.576 69.8073L208.55 71.8112Z" fill="#FEDB03"/>
<path d="M175.531 153.33C175.097 155.686 172.716 157.266 170.222 156.856C167.727 156.447 166.053 154.199 166.487 151.843C166.92 149.487 169.301 147.907 171.796 148.317C174.291 148.726 175.964 150.967 175.531 153.33Z" fill="#F24836"/>
<path d="M171.796 148.317C171.484 148.266 171.172 148.245 170.868 148.252L166.738 150.996C166.624 151.261 166.54 151.549 166.487 151.843C166.449 152.058 166.434 152.267 166.426 152.482L172.45 148.482C172.237 148.41 172.017 148.352 171.796 148.317Z" fill="#C0392B"/>
<path d="M175.531 153.33C175.561 153.143 175.584 152.963 175.592 152.777L169.651 156.72C169.834 156.777 170.024 156.82 170.222 156.856C170.587 156.914 170.944 156.928 171.294 156.907L175.219 154.299C175.356 153.991 175.462 153.667 175.531 153.33Z" fill="#C0392B"/>
<path d="M175.47 151.577C175.379 151.225 175.242 150.888 175.067 150.572L167.628 155.513C167.886 155.779 168.175 156.016 168.495 156.217L175.47 151.577Z" fill="#C0392B"/>
<path d="M174.435 149.71C174.184 149.444 173.895 149.207 173.584 148.999L166.563 153.66C166.662 154.012 166.799 154.342 166.981 154.658L174.435 149.71Z" fill="#C0392B"/>
<path d="M170.085 149.387C170.381 149.782 170.138 150.428 169.537 150.83C168.936 151.225 168.214 151.225 167.917 150.83C167.62 150.435 167.864 149.789 168.465 149.387C169.058 148.984 169.788 148.984 170.085 149.387Z" fill="white"/>
<path d="M173.759 154.86C173.956 155.118 173.789 155.542 173.401 155.808C173.005 156.066 172.534 156.066 172.336 155.808C172.138 155.549 172.306 155.125 172.694 154.86C173.089 154.601 173.561 154.601 173.759 154.86Z" fill="white"/>
<path d="M167.993 151.922C167.955 152.137 167.742 152.281 167.514 152.238C167.286 152.202 167.133 152.001 167.179 151.786C167.217 151.57 167.43 151.426 167.658 151.47C167.886 151.505 168.039 151.714 167.993 151.922Z" fill="white"/>
<path d="M173.69 149.063L169.75 148.417L170.153 146.248C170.206 145.961 170.503 145.76 170.807 145.817L173.637 146.284C173.941 146.334 174.154 146.614 174.093 146.902L173.69 149.063Z" fill="#FEDB03"/>
<path d="M175.28 107.047C174.359 109.274 171.697 110.373 169.332 109.504C166.974 108.635 165.81 106.121 166.73 103.887C167.651 101.661 170.313 100.562 172.678 101.431C175.036 102.307 176.2 104.821 175.28 107.047Z" fill="#FEDB03"/>
<path d="M172.678 101.438C172.382 101.33 172.085 101.251 171.781 101.201L167.156 103.111C166.989 103.356 166.844 103.614 166.73 103.894C166.647 104.095 166.586 104.304 166.533 104.505L173.279 101.718C173.097 101.61 172.891 101.517 172.678 101.438Z" fill="#F1C40F"/>
<path d="M175.28 107.047C175.356 106.875 175.409 106.695 175.455 106.516L168.807 109.259C168.974 109.346 169.149 109.432 169.339 109.496C169.681 109.626 170.031 109.705 170.381 109.748L174.778 107.931C174.968 107.672 175.143 107.371 175.28 107.047Z" fill="#F1C40F"/>
<path d="M175.592 105.324C175.576 104.957 175.516 104.605 175.409 104.261L167.08 107.701C167.278 108.01 167.506 108.297 167.78 108.548L175.592 105.324Z" fill="#F1C40F"/>
<path d="M174.976 103.298C174.786 102.989 174.557 102.702 174.291 102.443L166.434 105.69C166.457 106.049 166.518 106.408 166.632 106.746L174.976 103.298Z" fill="#F1C40F"/>
<path d="M170.777 102.163C170.982 102.609 170.609 103.198 169.932 103.471C169.263 103.751 168.548 103.614 168.343 103.162C168.137 102.716 168.51 102.127 169.187 101.855C169.856 101.582 170.571 101.718 170.777 102.163Z" fill="white"/>
<path d="M173.226 108.218C173.363 108.512 173.112 108.893 172.671 109.08C172.23 109.259 171.766 109.173 171.629 108.879C171.492 108.584 171.743 108.204 172.184 108.017C172.618 107.837 173.089 107.931 173.226 108.218Z" fill="white"/>
<path d="M168.198 104.261C168.115 104.462 167.871 104.562 167.658 104.483C167.445 104.404 167.339 104.174 167.422 103.973C167.506 103.772 167.749 103.672 167.962 103.751C168.175 103.83 168.282 104.06 168.198 104.261Z" fill="white"/>
<path d="M174.375 102.53L170.647 101.151L171.499 99.1037C171.613 98.8308 171.941 98.6944 172.23 98.8021L174.907 99.7932C175.196 99.901 175.341 100.21 175.226 100.483L174.375 102.53Z" fill="#C0392B"/>
<path d="M218.134 182.138C218.826 184.436 217.411 186.835 214.977 187.489C212.543 188.142 210.002 186.806 209.31 184.508C208.618 182.21 210.033 179.811 212.467 179.157C214.901 178.504 217.441 179.839 218.134 182.138Z" fill="#FEDB03"/>
<path d="M212.459 179.157C212.155 179.236 211.866 179.351 211.592 179.48L209.135 183.646C209.158 183.933 209.211 184.221 209.295 184.508C209.356 184.716 209.44 184.917 209.531 185.111L213.113 179.035C212.908 179.064 212.687 179.1 212.459 179.157Z" fill="#F1C40F"/>
<path d="M218.134 182.138C218.08 181.958 218.012 181.786 217.936 181.613L214.406 187.603C214.597 187.575 214.787 187.539 214.985 187.489C215.334 187.395 215.669 187.259 215.973 187.094L218.309 183.136C218.286 182.806 218.232 182.475 218.134 182.138Z" fill="#F1C40F"/>
<path d="M217.274 180.586C217.031 180.306 216.749 180.055 216.445 179.847L212.018 187.345C212.368 187.481 212.741 187.575 213.121 187.618L217.274 180.586Z" fill="#F1C40F"/>
<path d="M215.487 179.33C215.137 179.193 214.772 179.093 214.391 179.042L210.215 186.117C210.466 186.39 210.74 186.641 211.052 186.842L215.487 179.33Z" fill="#F1C40F"/>
<path d="M211.417 180.823C211.866 181.06 211.942 181.743 211.585 182.346C211.227 182.949 210.573 183.251 210.124 183.014C209.675 182.777 209.599 182.095 209.957 181.491C210.314 180.888 210.968 180.586 211.417 180.823Z" fill="white"/>
<path d="M217.244 184.249C217.54 184.407 217.586 184.853 217.358 185.248C217.122 185.643 216.696 185.837 216.399 185.686C216.103 185.528 216.057 185.082 216.285 184.687C216.521 184.285 216.947 184.091 217.244 184.249Z" fill="white"/>
<path d="M210.702 183.969C210.763 184.178 210.634 184.393 210.413 184.45C210.193 184.508 209.964 184.386 209.904 184.178C209.843 183.969 209.972 183.754 210.193 183.696C210.413 183.639 210.641 183.761 210.702 183.969Z" fill="white"/>
<path d="M214.513 179.057L210.664 180.091L210.025 177.972C209.942 177.692 210.117 177.39 210.413 177.311L213.174 176.572C213.471 176.493 213.79 176.658 213.874 176.938L214.513 179.057Z" fill="#C0392B"/>
<path d="M214.962 131.927C215.654 134.225 214.239 136.624 211.805 137.277C209.371 137.931 206.831 136.595 206.138 134.297C205.446 131.998 206.861 129.6 209.295 128.946C211.729 128.292 214.262 129.628 214.962 131.927Z" fill="#FEDB03"/>
<path d="M209.287 128.946C208.983 129.025 208.694 129.14 208.42 129.269L205.964 133.435C205.986 133.722 206.04 134.009 206.123 134.297C206.184 134.505 206.268 134.706 206.359 134.9L209.942 128.824C209.729 128.853 209.508 128.889 209.287 128.946Z" fill="#F1C40F"/>
<path d="M214.962 131.927C214.908 131.747 214.84 131.575 214.764 131.402L211.235 137.392C211.425 137.364 211.615 137.328 211.813 137.277C212.163 137.184 212.497 137.048 212.802 136.882L215.137 132.925C215.114 132.595 215.061 132.264 214.962 131.927Z" fill="#F1C40F"/>
<path d="M214.102 130.375C213.859 130.095 213.577 129.851 213.273 129.636L208.846 137.134C209.196 137.27 209.569 137.364 209.949 137.407L214.102 130.375Z" fill="#F1C40F"/>
<path d="M212.307 129.118C211.957 128.982 211.592 128.881 211.212 128.831L207.036 135.906C207.287 136.179 207.561 136.423 207.873 136.631L212.307 129.118Z" fill="#F1C40F"/>
<path d="M208.245 130.612C208.694 130.849 208.77 131.532 208.413 132.135C208.055 132.738 207.401 133.04 206.952 132.803C206.504 132.566 206.427 131.884 206.785 131.28C207.135 130.677 207.789 130.375 208.245 130.612Z" fill="white"/>
<path d="M214.072 134.031C214.368 134.189 214.414 134.634 214.186 135.029C213.95 135.424 213.524 135.618 213.227 135.467C212.931 135.309 212.885 134.864 213.113 134.469C213.349 134.074 213.775 133.88 214.072 134.031Z" fill="white"/>
<path d="M207.53 133.758C207.591 133.966 207.462 134.182 207.241 134.239C207.021 134.297 206.793 134.175 206.732 133.966C206.671 133.758 206.8 133.543 207.021 133.485C207.241 133.428 207.47 133.55 207.53 133.758Z" fill="white"/>
<path d="M211.341 128.845L207.492 129.88L206.853 127.761C206.77 127.481 206.945 127.179 207.241 127.1L210.002 126.36C210.299 126.281 210.619 126.447 210.702 126.727L211.341 128.845Z" fill="#C0392B"/>
<path d="M224.721 82.9652H158.896C156.523 82.9652 154.598 84.7823 154.598 87.0232C154.598 89.2641 156.523 91.0812 158.896 91.0812H224.721C227.094 91.0812 229.018 89.2641 229.018 87.0232C229.018 84.7823 227.094 82.9652 224.721 82.9652Z" fill="white"/>
<path d="M190.454 241.585L145.57 242.361L144.497 209.596L189.382 208.82L190.454 241.585Z" fill="#2980B9"/>
<path opacity="0.1" d="M189.519 212.246L144.634 213.021L144.497 209.596L189.382 208.82L189.519 212.246Z" fill="black"/>
<path d="M191.382 208.784L142.497 209.631L142.208 202.018L191.093 201.178L191.382 208.784Z" fill="#3498DB"/>
<path d="M172.678 241.894L163.345 242.052L161.984 201.681L171.317 201.515L172.678 241.894Z" fill="#FEDB03"/>
<path d="M156.416 193.974L166.434 195.978L166.654 201.594L152.362 201.839L152.164 196.639C152.081 194.865 154.203 193.536 156.416 193.974Z" fill="#FEDB03"/>
<path d="M176.276 193.637L166.434 195.985L166.654 201.602L180.946 201.357L180.741 196.158C180.673 194.369 178.452 193.112 176.276 193.637Z" fill="#FEDB03"/>
<path d="M166.928 195.971L166.091 195.985C163.718 196.028 161.839 197.903 161.923 200.144L161.984 201.681L171.317 201.523L171.248 199.842C171.165 197.651 169.24 195.928 166.928 195.971Z" fill="#F1C40F"/>
<path d="M133.301 241.592L83.6392 246.505L79.007 202.729L128.668 197.817L133.301 241.592Z" fill="#108F45"/>
<path opacity="0.1" d="M128.667 197.835L79.0087 202.747L79.5159 207.319L129.174 202.407L128.667 197.835Z" fill="black"/>
<path d="M129.752 187.446L75.668 192.796L76.7958 202.962L130.88 197.611L129.752 187.446Z" fill="#27AE60"/>
<path d="M113.631 243.539L103.309 244.559L97.5435 190.62L107.873 189.6L113.631 243.539Z" fill="#F24836"/>
<path d="M90.5685 180.788L101.879 182.605L102.716 190.11L86.9023 191.676L86.134 184.731C85.8602 182.346 88.0736 180.385 90.5685 180.788Z" fill="#F24836"/>
<path d="M112.535 178.618L101.871 182.605L102.708 190.11L118.522 188.544L117.753 181.599C117.487 179.222 114.893 177.735 112.535 178.618Z" fill="#F24836"/>
<path d="M101.879 182.605C99.0267 182.885 96.9578 185.298 97.2544 187.991L97.5435 190.62L107.865 189.6L107.576 186.971C107.28 184.278 104.724 182.324 101.879 182.605Z" fill="#C0392B"/>
<path d="M398.927 234.611L368.16 237.657L365.292 210.536L396.06 207.491L398.927 234.611Z" fill="#108F45"/>
<path opacity="0.1" d="M396.066 207.514L365.299 210.558L365.613 213.394L396.381 210.35L396.066 207.514Z" fill="black"/>
<path d="M396.742 201.082L363.228 204.397L363.927 210.698L397.441 207.382L396.742 201.082Z" fill="#27AE60"/>
<path d="M386.742 235.818L380.345 236.45L376.778 203.031L383.175 202.399L386.742 235.818Z" fill="#F24836"/>
<path d="M372.45 196.94L379.455 198.068L379.972 202.715L370.176 203.685L369.696 199.382C369.537 197.91 370.906 196.696 372.45 196.94Z" fill="#F24836"/>
<path d="M386.065 195.597L379.455 198.068L379.972 202.715L389.769 201.745L389.29 197.443C389.13 195.971 387.526 195.051 386.065 195.597Z" fill="#F24836"/>
<path d="M379.455 198.068C377.691 198.24 376.405 199.734 376.595 201.408L376.778 203.038L383.175 202.406L382.992 200.776C382.81 199.102 381.227 197.888 379.455 198.068Z" fill="#C0392B"/>
<path d="M303.065 245.363L258.188 251.985L251.845 212.411L296.722 205.789L303.065 245.363Z" fill="#108F45"/>
<path opacity="0.1" d="M296.725 205.784L251.845 212.407L252.53 216.544L297.409 209.921L296.725 205.784Z" fill="black"/>
<path d="M297.202 196.298L248.324 203.511L249.845 212.7L298.723 205.488L297.202 196.298Z" fill="#27AE60"/>
<path d="M285.289 247.985L275.964 249.364L268.099 200.603L277.432 199.224L285.289 247.985Z" fill="#F24836"/>
<path d="M261.276 191.97L271.636 193.127L272.762 199.907L258.47 202.018L257.428 195.741C257.078 193.593 258.994 191.719 261.276 191.97Z" fill="#F24836"/>
<path d="M281.136 189.047L271.644 193.134L272.77 199.914L287.062 197.802L286.02 191.525C285.662 189.377 283.236 188.142 281.136 189.047Z" fill="#F24836"/>
<path d="M271.644 193.134C269.065 193.514 267.308 195.791 267.704 198.226L268.099 200.603L277.432 199.224L277.037 196.847C276.633 194.412 274.222 192.753 271.644 193.134Z" fill="#C0392B"/>
<path d="M159.17 216.993H116.339V242.26H159.17V216.993Z" fill="#C0392B"/>
<path opacity="0.1" d="M159.17 216.993H116.339V220.936H159.17V216.993Z" fill="black"/>
<path d="M161.079 208.224H114.429V216.993H161.079V208.224Z" fill="#F24836"/>
<path d="M142.208 208.224H133.301V242.26H142.208V208.224Z" fill="#FEDB03"/>
<path d="M128.273 199.246L137.75 201.752V208.224H124.112V202.227C124.112 200.18 126.181 198.693 128.273 199.246Z" fill="#FEDB03"/>
<path d="M147.228 199.246L137.75 201.752V208.224H151.388V202.227C151.396 200.18 149.319 198.693 147.228 199.246Z" fill="#FEDB03"/>
<path d="M137.75 201.752C135.293 201.752 133.301 203.634 133.301 205.954V208.224H142.208V205.954C142.208 203.634 140.207 201.752 137.75 201.752Z" fill="#F1C40F"/>
<path d="M333.528 214.235H290.698V239.502H333.528V214.235Z" fill="#C0392B"/>
<path opacity="0.1" d="M333.528 214.235H290.698V218.178H333.528V214.235Z" fill="black"/>
<path d="M335.445 205.466H288.796V214.235H335.445V205.466Z" fill="#F24836"/>
<path d="M316.574 205.466H307.667V239.502H316.574V205.466Z" fill="#FEDB03"/>
<path d="M302.639 196.488L312.117 198.994V205.466H298.479V199.476C298.479 197.422 300.548 195.935 302.639 196.488Z" fill="#FEDB03"/>
<path d="M321.594 196.488L312.117 198.994V205.466H325.755V199.476C325.755 197.422 323.686 195.935 321.594 196.488Z" fill="#FEDB03"/>
<path d="M312.117 198.994C309.66 198.994 307.667 200.876 307.667 203.196V205.466H316.574V203.196C316.566 200.876 314.574 198.994 312.117 198.994Z" fill="#F1C40F"/>
<path d="M8.13162 218.058C11.3415 218.654 13.7374 216.729 13.631 213.641C13.3723 206.394 12.6345 194.249 10.5884 192.568C6.89179 189.53 4.54906 197.424 4.54906 197.424C4.54906 197.424 1.2023 193.1 -1.71852 194.572C-4.63933 196.045 -1.59682 202.006 -1.59682 202.006C-1.59682 202.006 -7.34717 198.214 -9.34762 200.699C-11.3557 203.184 -7.36999 206.998 -7.36999 206.998C-7.36999 206.998 -15.9955 207.924 -13.4094 211.853C-11.9794 214.029 0.601398 216.658 8.13162 218.058Z" fill="#27AE60"/>
<path d="M40.8995 207.364H8.61841V226.411H40.8995V207.364Z" fill="#C0392B"/>
<path opacity="0.1" d="M40.8995 224.204H8.61841V227.178H40.8995V224.204Z" fill="black"/>
<path d="M42.3447 200.756H7.18082V207.364H42.3447V200.756Z" fill="#F24836"/>
<path d="M28.1133 200.756H21.4046V226.411H28.1133V200.756Z" fill="#FEDB03"/>
<path d="M17.6242 193.99L24.7665 195.879V200.756H14.4828V196.239C14.4828 194.694 16.0421 193.574 17.6242 193.99Z" fill="#FEDB03"/>
<path d="M31.9088 193.99L24.7665 195.879V200.756H35.0502V196.239C35.0426 194.694 33.4833 193.574 31.9088 193.99Z" fill="#FEDB03"/>
<path d="M24.7665 212.72C22.9106 212.72 21.4122 214.142 21.4122 215.887V217.597H28.1209V215.887C28.1209 214.135 26.6149 212.72 24.7665 212.72Z" fill="#F1C40F"/>
<path d="M258.631 217.798L215.92 214.761L213.911 239.957L256.622 242.995L258.631 217.798Z" fill="#F1C40F"/>
<path opacity="0.1" d="M258.627 217.797L215.916 214.76L215.602 218.692L258.313 221.729L258.627 217.797Z" fill="black"/>
<path d="M261.232 209.191L214.713 205.883L214.015 214.628L260.534 217.936L261.232 209.191Z" fill="#FEDB03"/>
<path d="M242.415 207.853L233.533 207.221L230.826 241.162L239.708 241.794L242.415 207.853Z" fill="#F24836"/>
<path d="M229.223 197.917L238.473 201.085L237.955 207.541L224.355 206.572L224.835 200.596C224.994 198.549 227.177 197.213 229.223 197.917Z" fill="#F24836"/>
<path d="M248.118 199.26L238.473 201.085L237.956 207.541L251.556 208.511L252.035 202.535C252.202 200.488 250.247 198.858 248.118 199.26Z" fill="#F24836"/>
<path d="M238.473 201.085C236.024 200.912 233.886 202.643 233.696 204.963L233.513 207.225L242.398 207.857L242.58 205.595C242.763 203.275 240.922 201.257 238.473 201.085Z" fill="#C0392B"/>
<path d="M83.8766 200.557L41.1698 197.479L39.1335 222.673L81.8403 225.751L83.8766 200.557Z" fill="#F1C40F"/>
<path opacity="0.1" d="M83.8774 200.555L41.1706 197.477L40.8528 201.409L83.5596 204.486L83.8774 200.555Z" fill="black"/>
<path d="M86.4925 191.951L39.9784 188.599L39.2716 197.343L85.7857 200.695L86.4925 191.951Z" fill="#FEDB03"/>
<path d="M67.6748 190.596L58.7937 189.956L56.0506 223.894L64.9317 224.534L67.6748 190.596Z" fill="#F24836"/>
<path d="M54.5071 180.646L63.7564 183.821L63.2315 190.278L49.6315 189.294L50.1183 183.318C50.278 181.278 52.461 179.943 54.5071 180.646Z" fill="#F24836"/>
<path d="M73.4011 182.011L63.7488 183.828L63.2315 190.278L76.8316 191.262L77.3184 185.286C77.4781 183.239 75.5309 181.609 73.4011 182.011Z" fill="#F24836"/>
<path d="M63.7488 183.821C61.2995 183.641 59.1546 185.379 58.972 187.692L58.7895 189.955L67.666 190.594L67.8485 188.331C68.0387 186.019 66.2056 184.001 63.7488 183.821Z" fill="#C0392B"/>
<path d="M49.089 238.442C51.0683 234.715 49.4734 230.179 45.5267 228.31C41.5801 226.441 36.7762 227.947 34.7969 231.674C32.8177 235.401 34.4125 239.937 38.3591 241.806C42.3058 243.675 47.1097 242.169 49.089 238.442Z" fill="#F24836"/>
<path d="M44.3682 227.86C43.8434 227.702 43.3109 227.601 42.7785 227.544L34.9668 231.358C34.7082 231.796 34.4876 232.263 34.3203 232.765C34.1986 233.125 34.1149 233.491 34.0541 233.857L45.4559 228.284C45.106 228.126 44.7485 227.975 44.3682 227.86Z" fill="#FEDB03"/>
<path d="M49.5631 237.348C49.6696 237.039 49.7456 236.723 49.8065 236.407L38.572 241.894C38.8762 242.031 39.1957 242.153 39.5228 242.253C40.1313 242.44 40.7474 242.54 41.3635 242.584L48.7948 238.957C49.0991 238.461 49.3653 237.922 49.5631 237.348Z" fill="#FEDB03"/>
<path d="M49.8977 234.31C49.8293 233.678 49.6771 233.067 49.4489 232.478L35.3773 239.352C35.7576 239.869 36.1912 240.343 36.7008 240.752L49.8977 234.31Z" fill="#FEDB03"/>
<path d="M48.5818 230.862C48.2167 230.345 47.7756 229.871 47.2812 229.447L34.0006 235.933C34.0766 236.558 34.2364 237.168 34.4722 237.75L48.5818 230.862Z" fill="#FEDB03"/>
<path d="M41.1505 229.332C41.5613 230.086 40.9756 231.149 39.8422 231.702C38.7089 232.256 37.4539 232.097 37.0355 231.343C36.6248 230.589 37.2105 229.526 38.3438 228.973C39.4771 228.413 40.7322 228.578 41.1505 229.332Z" fill="white"/>
<path d="M46.125 239.603C46.3988 240.099 46.0109 240.795 45.2655 241.154C44.5201 241.521 43.6986 241.413 43.4248 240.917C43.1509 240.422 43.5389 239.725 44.2843 239.366C45.0297 239 45.8512 239.107 46.125 239.603Z" fill="white"/>
<path d="M36.9062 233.254C36.7845 233.613 36.3814 233.814 36.001 233.699C35.6207 233.584 35.4078 233.204 35.5295 232.844C35.6512 232.485 36.0543 232.284 36.4346 232.399C36.8149 232.507 37.0279 232.895 36.9062 233.254Z" fill="white"/>
<path d="M47.4485 229.577L40.8006 227.58L42.0328 223.924C42.2002 223.436 42.7554 223.163 43.2726 223.321L48.0418 224.757C48.559 224.915 48.848 225.44 48.6807 225.928L47.4485 229.577Z" fill="#27AE60"/>
<path d="M370.201 236.117C374.439 234.949 376.872 230.758 375.635 226.756C374.398 222.755 369.959 220.457 365.721 221.626C361.483 222.794 359.05 226.985 360.287 230.987C361.525 234.988 365.963 237.285 370.201 236.117Z" fill="#F24836"/>
<path d="M364.631 222.021C364.129 222.236 363.665 222.502 363.231 222.796L360.188 230.589C360.31 231.078 360.485 231.566 360.713 232.04C360.881 232.385 361.078 232.708 361.291 233.01L365.733 221.633C365.368 221.741 364.996 221.863 364.631 222.021Z" fill="#C0392B"/>
<path d="M375.241 225.72C375.097 225.425 374.929 225.145 374.747 224.872L370.373 236.084C370.693 235.99 371.012 235.883 371.332 235.739C371.91 235.488 372.442 235.172 372.921 234.812L375.812 227.4C375.69 226.833 375.508 226.266 375.241 225.72Z" fill="#C0392B"/>
<path d="M373.325 223.263C372.823 222.84 372.275 222.488 371.689 222.2L366.205 236.242C366.852 236.378 367.513 236.45 368.183 236.436L373.325 223.263Z" fill="#C0392B"/>
<path d="M369.879 221.554C369.24 221.403 368.578 221.331 367.909 221.339L362.737 234.583C363.239 234.992 363.794 235.344 364.387 235.624L369.879 221.554Z" fill="#C0392B"/>
<path d="M363.307 225.159C364.151 225.454 364.478 226.61 364.037 227.745C363.596 228.88 362.554 229.555 361.71 229.261C360.865 228.966 360.538 227.81 360.98 226.675C361.421 225.547 362.463 224.865 363.307 225.159Z" fill="white"/>
<path d="M374.313 229.569C374.869 229.763 375.082 230.517 374.792 231.264C374.503 232.004 373.819 232.449 373.264 232.263C372.708 232.069 372.495 231.315 372.784 230.568C373.081 229.821 373.758 229.375 374.313 229.569Z" fill="white"/>
<path d="M362.972 230.754C363.14 231.099 362.98 231.501 362.615 231.659C362.25 231.817 361.824 231.667 361.656 231.322C361.489 230.977 361.649 230.575 362.014 230.417C362.371 230.259 362.805 230.41 362.972 230.754Z" fill="white"/>
<path d="M368.129 221.324L361.793 224.082L360.09 220.599C359.861 220.132 360.074 219.579 360.569 219.363L365.117 217.381C365.612 217.166 366.197 217.367 366.426 217.834L368.129 221.324Z" fill="#FEDB03"/>
<g clip-path="url(#clip0_436_9441)">
<path d="M396.84 218.338C330.054 214.823 265.21 240.44 198.351 242.377C124.265 244.517 51.801 217.572 -22.236 220.591V604H394.824L396.84 218.338Z" fill="#EBF0FF"/>
<path d="M-124 298.025C-91.4306 314.247 -57.1897 325.939 -20.1467 325.173C16.8964 324.407 58.4377 316.477 94.1289 307.398C167.846 288.63 209.166 289.486 277.279 299.985C238.688 282.119 193.73 279.506 150.64 282.525C107.525 285.544 51.0635 300.616 5.88428 304.829C-37.1319 308.839 -66.26 295.817 -104.335 277.05C-114.241 284.688 -117.265 287.864 -124 298.025Z" fill="#E9F0FA"/>
<path d="M91.4004 250.871C35.676 268.782 -29.4382 259.883 -77.0509 227.823C-19.7288 226.516 37.1263 233.974 91.4004 250.871Z" fill="#D3E0EF"/>
<path d="M449 244.698C423.338 260.536 389.982 260.851 359.231 257.72C328.481 254.588 296.919 246.973 266.513 252.268C274.403 244.022 287.087 241.115 299.058 240.8C311.004 240.462 322.999 242.242 334.921 241.341C352.816 239.989 369.457 232.757 386.246 226.944C403.034 221.109 421.47 216.581 438.824 220.794C439.438 229.986 445.903 235.956 449 244.698Z" fill="#D3E0EF"/>
<path d="M219.441 259.026C189.723 273.355 153.098 274.977 122.003 263.33C153.639 255.129 187.363 252.47 219.441 259.026Z" fill="#E9F0FA"/>
</g>
<defs>
<clipPath id="clip0_436_9441">
<rect width="573" height="386" fill="white" transform="translate(-124 218)"/>
</clipPath>
</defs>
</svg>
